<svg width="140" height="43" viewBox="0 0 140 43" fill="none" xmlns="http://www.w3.org/2000/svg">
<g filter="url(#filter0_d_1030_632)">
<path d="M128.407 10.7987C127.652 9.69347 126.709 8.71896 125.607 7.91974C123.264 6.21433 120.375 5.43888 117.493 5.73302C114.613 6.03013 111.941 7.38197 109.991 9.52709C109.212 10.3857 108.569 11.3484 108.075 12.3793C107.239 13.5351 105.862 14.2571 104.478 13.9065C102.917 13.5083 101.951 11.901 102.603 10.4244C103.909 7.45625 106.025 4.8922 108.729 3.04122C110.664 1.71612 112.83 0.809937 115.09 0.349419C121.119 1.27937 126.12 5.32598 128.407 10.7987ZM125.427 27.1783C123.048 28.8361 120.147 29.5581 117.271 29.2075C114.397 28.8569 111.751 27.4546 109.843 25.2709C109.153 24.4805 108.575 23.61 108.122 22.6801C107.293 21.4887 105.888 20.731 104.481 21.0905C102.92 21.4887 101.954 23.096 102.606 24.5726C103.915 27.5408 106.028 30.1048 108.732 31.9528C110.667 33.2749 112.833 34.1841 115.09 34.6446C121.146 33.7117 126.167 29.6294 128.437 24.1181C127.634 25.3065 126.618 26.3434 125.427 27.1783Z" fill="url(#paint0_linear_1030_632)"/>
<path d="M136 17.4985C136 21.765 134.448 25.8829 131.633 29.0798C128.819 32.2767 124.938 34.3327 120.719 34.8645C118.823 35.1022 116.918 35.0249 115.078 34.6506C121.134 33.7177 126.155 29.6354 128.425 24.124C128.745 23.6516 129.032 23.1555 129.281 22.6385C129.533 22.1156 129.536 21.5719 129.358 21.0906C129.1 20.3894 128.457 19.816 127.64 19.6199C126.259 19.2901 124.908 20.1963 124.081 21.355C123.643 21.97 123.101 22.5107 122.473 22.9475C121.134 23.8834 119.498 24.2904 117.878 24.0913C116.257 23.8923 114.767 23.102 113.692 21.8719C112.616 20.6419 112.03 19.0554 112.044 17.4213C112.059 15.7842 112.675 14.2125 113.775 13.0003C114.874 11.7911 116.379 11.0305 118.002 10.8611C119.626 10.6947 121.252 11.1315 122.573 12.0941C123.193 12.5457 123.726 13.0954 124.153 13.7163C124.955 14.8899 126.289 15.8228 127.675 15.5198C128.475 15.3445 129.115 14.8067 129.399 14.1352C129.607 13.645 129.622 13.0805 129.373 12.5338C129.094 11.9277 128.765 11.3484 128.389 10.7987C126.102 5.32599 121.101 1.27641 115.072 0.349431C116.918 -0.0249252 118.82 -0.102173 120.716 0.135513C124.935 0.664366 128.819 2.72035 131.63 5.92021C134.445 9.11412 136 13.232 136 17.4985Z" fill="url(#paint1_linear_1030_632)"/>
<path d="M13.0879 21.6023C13.0879 23.9083 13.469 25.5471 14.2311 26.5187C14.9933 27.4903 16.3432 27.9761 18.281 27.9761C19.6503 27.9761 20.7031 27.73 21.4394 27.2377C22.1887 26.7454 22.6989 26.0005 22.9702 25.003C23.2544 24.0054 23.3965 22.671 23.3965 20.9998V9.06822L20.2962 7.8634V4.48212L32.5231 4.2878V7.8634L29.5584 9.06822V20.9998C29.5584 24.977 28.6736 27.9438 26.9038 29.9C25.1469 31.8562 22.2081 32.8343 18.0872 32.8343C14.1472 32.8343 11.2987 31.9339 9.54186 30.1332C7.79792 28.3195 6.92595 25.4758 6.92595 21.6023V9.06822L4 7.8634V4.48212L16.1688 4.2878V7.8634L13.0879 9.06822V21.6023Z" fill="white"/>
<path d="M43.9944 13.596C43.9944 13.5442 44.4078 13.2462 45.2346 12.7021C46.0742 12.158 47.0302 11.6657 48.1024 11.2252C49.1746 10.7718 50.2403 10.5451 51.2996 10.5451C53.1986 10.5451 54.6777 11.1734 55.737 12.4301C56.7962 13.6867 57.3259 15.4162 57.3259 17.6186V28.1705L60.1162 29.1615V32.3485H49.1875V29.1615L51.3771 28.1705V18.7068C51.3771 17.774 51.1317 17.0097 50.6408 16.4137C50.1499 15.8178 49.4975 15.5198 48.6837 15.5198C47.9473 15.5198 47.2627 15.6883 46.6297 16.0251C46.0096 16.349 45.4865 16.7117 45.0602 17.1133C44.6468 17.502 44.4401 17.7222 44.4401 17.774V28.1705L46.6103 29.1615V32.3485H35.3135V29.1615L38.4913 28.1705V15.2284L35.3135 14.2373V11.0503L43.7231 10.856L43.9944 13.596Z" fill="white"/>
<path d="M64.9411 4.2878C64.9411 3.19957 65.277 2.33158 65.9487 1.68383C66.6205 1.03607 67.4214 0.712195 68.3515 0.712195C70.5734 0.712195 71.6843 1.90406 71.6843 4.2878C71.6843 5.40193 71.342 6.28935 70.6574 6.95006C69.9856 7.59782 69.217 7.92169 68.3515 7.92169C67.2664 7.92169 66.4267 7.61077 65.8325 6.98893C65.2382 6.35413 64.9411 5.45375 64.9411 4.2878ZM74.3778 29.1615V32.3485H62.4802V29.1615L65.6581 28.1705V15.2284L62.4802 14.2373V11.0503L71.6068 10.856V28.1705L74.3778 29.1615Z" fill="white"/>
<path d="M85.7328 32.7371C83.5884 32.7371 82.0705 32.07 81.1792 30.7356C80.3007 29.4012 79.8615 27.4839 79.8615 24.9835V15.8308H76.1798V11.9637L79.8615 11.4584V5.959L85.8103 4.89021V11.4584H91.3715V15.8308H85.8103V24.5949C85.8103 25.9163 85.9524 26.8426 86.2366 27.3737C86.5337 27.9049 87.0956 28.1705 87.9224 28.1705C88.4004 28.1705 88.9558 28.0668 89.5888 27.8596C90.2218 27.6393 90.7127 27.4385 91.0615 27.2571L92.476 30.2886C90.2541 31.9339 88.0064 32.7501 85.7328 32.7371Z" fill="white"/>
</g>
<defs>
<filter id="filter0_d_1030_632" x="0" y="0" width="140" height="43" filterUnits="userSpaceOnUse" color-interpolation-filters="sRGB">
<feFlood flood-opacity="0" result="BackgroundImageFix"/>
<feColorMatrix in="SourceAlpha" type="matrix" values="0 0 0 0 0 0 0 0 0 0 0 0 0 0 0 0 0 0 127 0" result="hardAlpha"/>
<feOffset dy="4"/>
<feGaussianBlur stdDeviation="2"/>
<feComposite in2="hardAlpha" operator="out"/>
<feColorMatrix type="matrix" values="0 0 0 0 0 0 0 0 0 0 0 0 0 0 0 0 0 0 0.25 0"/>
<feBlend mode="normal" in2="BackgroundImageFix" result="effect1_dropShadow_1030_632"/>
<feBlend mode="normal" in="SourceGraphic" in2="effect1_dropShadow_1030_632" result="shape"/>
</filter>
<linearGradient id="paint0_linear_1030_632" x1="306.246" y1="29.1133" x2="189.83" y2="-110.594" gradientUnits="userSpaceOnUse">
<stop offset="0.5382" stop-color="#3EA9D6"/>
<stop offset="0.7199" stop-color="#2E9EDC"/>
<stop offset="1" stop-color="#0E89E7"/>
</linearGradient>
<linearGradient id="paint1_linear_1030_632" x1="3.85628" y1="-2.765" x2="7.49099" y2="36.6327" gradientUnits="userSpaceOnUse">
<stop offset="0.1015" stop-color="#9AFDFE"/>
<stop offset="0.5398" stop-color="#41ACD8"/>
<stop offset="0.8774" stop-color="#0071BC"/>
</linearGradient>
</defs>
</svg>
