<svg width="18" height="18" viewBox="0 0 18 18" fill="none" xmlns="http://www.w3.org/2000/svg">
<path d="M4.5 0.75H13.5C15.5724 0.75 17.25 2.42493 17.25 4.48438V10.7695C17.2499 12.8289 15.5723 14.5039 13.5 14.5039H12.1504C11.6334 14.5039 11.1436 14.7513 10.833 15.1602L10.8311 15.1621L9.48145 16.9541L9.47949 16.9561C9.30334 17.1909 9.12257 17.25 9 17.25C8.87743 17.25 8.69666 17.1909 8.52051 16.9561L8.51855 16.9541L7.16895 15.1621L7.16406 15.1553L7.03223 15.0078C6.89212 14.8703 6.7305 14.7642 6.5791 14.6885C6.3788 14.5883 6.12061 14.5039 5.84961 14.5039H4.5C2.42768 14.5039 0.750079 12.8289 0.75 10.7695V4.48438L0.754883 4.29199C0.855417 2.32158 2.49251 0.75 4.5 0.75ZM5.40039 6.45312C4.49082 6.45312 3.75 7.19538 3.75 8.10449C3.75024 9.0085 4.47709 9.75488 5.40039 9.75488C6.32351 9.75467 7.04957 9.00837 7.0498 8.10449C7.0498 7.19551 6.30978 6.45334 5.40039 6.45312ZM9 6.45312C8.09043 6.45313 7.34961 7.19538 7.34961 8.10449C7.34984 9.0085 8.0767 9.75488 9 9.75488C9.9233 9.75488 10.6502 9.0085 10.6504 8.10449C10.6504 7.19538 9.90957 6.45312 9 6.45312ZM12.5996 6.45312C11.6902 6.45334 10.9502 7.19552 10.9502 8.10449C10.9504 9.00837 11.6765 9.75467 12.5996 9.75488C13.5229 9.75488 14.2498 9.0085 14.25 8.10449C14.25 7.19538 13.5092 6.45312 12.5996 6.45312Z" stroke="#1D1B20" stroke-width="1.5"/>
</svg>
