<svg width="28" height="32" viewBox="0 0 28 32" fill="none" xmlns="http://www.w3.org/2000/svg">
<path d="M1.55566 13.5H26.4443C27.0217 13.5 27.5 13.9772 27.5 14.5625V24.1875C27.5 26.4551 26.935 28.2679 25.7852 29.5117C24.6419 30.7484 22.8487 31.4999 20.2227 31.5H7.77734C5.15131 31.4999 3.35808 30.7484 2.21484 29.5117C1.06499 28.2679 0.5 26.4551 0.5 24.1875V14.5625C0.5 13.9772 0.978348 13.5 1.55566 13.5ZM8.94824 22.9443C8.59707 22.8767 8.2391 22.8992 7.9043 23.0176L7.78418 23.0645C7.50896 23.1708 7.30232 23.3201 7.11621 23.4883L7.10059 23.502L7.08691 23.5166C6.72534 23.9002 6.5 24.427 6.5 24.9688C6.5 25.5105 6.72534 26.0373 7.08691 26.4209L7.10059 26.4355L7.11621 26.4492C7.30232 26.6174 7.50896 26.7667 7.78418 26.873V26.8711C8.01906 26.9678 8.28198 27.0312 8.55566 27.0312C8.63207 27.0312 8.704 27.0259 8.76855 27.0186L8.9375 26.9951L8.94922 26.9932C9.0847 26.9705 9.2142 26.9269 9.33789 26.8682C9.45941 26.8243 9.57401 26.7638 9.68359 26.6924L9.68457 26.6943C9.6898 26.6912 9.6941 26.6858 9.69922 26.6826C9.70076 26.6816 9.70354 26.6817 9.70508 26.6807L9.7041 26.6797C9.77136 26.6369 9.82966 26.5905 9.86816 26.5576C9.92259 26.5111 9.94163 26.4935 9.97363 26.4678L10 26.4463L10.0234 26.4209C10.3852 26.0373 10.6113 25.5107 10.6113 24.9688C10.6113 24.4268 10.3852 23.9002 10.0234 23.5166L10 23.4912L9.97363 23.4697L9.85645 23.376C9.81765 23.3448 9.77903 23.3134 9.74023 23.2822L9.72266 23.2686L9.70508 23.2568L9.51074 23.1426C9.45456 23.1144 9.39688 23.0896 9.33789 23.0684C9.2188 23.0118 9.09391 22.9705 8.96387 22.9473H8.96484C8.96221 22.9467 8.95966 22.9458 8.95703 22.9453C8.95445 22.9449 8.9518 22.9448 8.94922 22.9443H8.94824ZM15.3076 23.3701C14.571 22.7773 13.429 22.7773 12.6924 23.3701L12.541 23.5068L12.5322 23.5166C12.1704 23.9002 11.9443 24.4268 11.9443 24.9688C11.9443 25.5107 12.1704 26.0373 12.5322 26.4209L12.541 26.4307L12.5508 26.4404C12.9327 26.8039 13.4585 27.0312 14 27.0312C14.5415 27.0312 15.0673 26.8039 15.4492 26.4404L15.459 26.4307L15.4678 26.4209C15.8296 26.0373 16.0557 25.5107 16.0557 24.9688C16.0557 24.4268 15.8296 23.9002 15.4678 23.5166H15.4688L15.459 23.5068L15.3076 23.3701ZM20.752 23.3701C20.0153 22.7773 18.8733 22.7772 18.1367 23.3701L17.9854 23.5068L17.9766 23.5166C17.6148 23.9002 17.3887 24.4268 17.3887 24.9688C17.3887 25.5107 17.6148 26.0373 17.9766 26.4209L17.9854 26.4307L17.9951 26.4404C18.3771 26.8039 18.9028 27.0312 19.4443 27.0312C19.9858 27.0312 20.5116 26.8039 20.8936 26.4404L20.9131 26.4209C21.2747 26.0373 21.5 25.5105 21.5 24.9688C21.5 24.4947 21.3274 24.0322 21.042 23.667L20.9131 23.5166L20.9033 23.5068L20.752 23.3701ZM9.32617 17.5957C8.61035 17.2939 7.78167 17.4408 7.20898 17.9336L7.09668 18.0381L7.08691 18.0479C6.72534 18.4314 6.5 18.9583 6.5 19.5C6.5 20.0417 6.72534 20.5686 7.08691 20.9521L7.10645 20.9717C7.4884 21.3351 8.01417 21.5625 8.55566 21.5625C9.09715 21.5625 9.62294 21.3351 10.0049 20.9717L10.0146 20.9619L10.0234 20.9521C10.3852 20.5686 10.6113 20.0419 10.6113 19.5C10.6113 19.026 10.4387 18.5634 10.1533 18.1982L10.0234 18.0479L10.0146 18.0381L9.8623 17.9014C9.70775 17.7772 9.53403 17.6785 9.34473 17.6035H9.3457C9.34315 17.6024 9.34044 17.6017 9.33789 17.6006C9.33424 17.5992 9.33081 17.5971 9.32715 17.5957H9.32617ZM15.3467 17.9336C14.8073 17.4695 14.0409 17.3125 13.3555 17.5479L13.2285 17.5957C13.0322 17.6715 12.8528 17.7733 12.6934 17.9014L12.541 18.0381L12.5322 18.0479C12.1704 18.4314 11.9443 18.9581 11.9443 19.5C11.9443 20.0419 12.1704 20.5686 12.5322 20.9521L12.541 20.9619L12.5508 20.9717C12.9327 21.3352 13.4585 21.5625 14 21.5625C14.0764 21.5625 14.1483 21.5572 14.2129 21.5498L14.3818 21.5264L14.3936 21.5244C14.529 21.5017 14.6586 21.4581 14.7822 21.3994C14.9112 21.3529 15.0339 21.2893 15.1494 21.2119L15.167 21.2002L15.1846 21.1865C15.2234 21.1553 15.262 21.1239 15.3008 21.0928C15.3397 21.0615 15.3791 21.0303 15.418 20.999L15.4443 20.9775L15.4678 20.9521C15.8296 20.5686 16.0557 20.0419 16.0557 19.5C16.0557 18.9581 15.8296 18.4314 15.4678 18.0479H15.4688L15.459 18.0381L15.3467 17.9336ZM19.8545 17.4785C19.4982 17.4069 19.1339 17.4288 18.7939 17.5488L18.6729 17.5957C18.3976 17.702 18.191 17.8513 18.0049 18.0195L17.9902 18.0332L17.9766 18.0479C17.6148 18.4314 17.3887 18.9581 17.3887 19.5C17.3887 20.0419 17.6148 20.5686 17.9766 20.9521L17.9854 20.9619L17.9951 20.9717C18.3771 21.3351 18.9029 21.5625 19.4443 21.5625C19.5124 21.5625 19.5833 21.5571 19.6494 21.5498L19.8262 21.5264L19.8379 21.5244C19.9733 21.5017 20.1029 21.4581 20.2266 21.3994C20.3556 21.3529 20.4782 21.2893 20.5938 21.2119L20.6113 21.2002L20.6289 21.1865C20.6677 21.1553 20.7063 21.1239 20.7451 21.0928C20.784 21.0615 20.8234 21.0303 20.8623 20.999L20.8887 20.9775L20.9131 20.9521C21.2747 20.5686 21.5 20.0417 21.5 19.5C21.5 18.9583 21.2747 18.4314 20.9131 18.0479L20.8887 18.0225L20.8623 18.001L20.7451 17.9072C20.7063 17.8761 20.6677 17.8447 20.6289 17.8135L20.6113 17.7998L20.5938 17.7881L20.4004 17.6738C20.344 17.6455 20.2858 17.621 20.2266 17.5996C20.1078 17.5432 19.9832 17.5018 19.8535 17.4785H19.8545ZM20.248 0.5C20.6155 0.500228 20.9189 0.807463 20.9189 1.16406V4.04004L21.373 4.08203C23.3896 4.26747 24.8329 4.94987 25.8096 5.97949C26.7278 6.94762 27.2766 8.26783 27.4648 9.89062L27.498 10.2197L27.499 10.2314C27.5048 10.2857 27.4862 10.349 27.4316 10.4062C27.3763 10.4642 27.2975 10.5 27.2148 10.5H0.783203C0.617604 10.5 0.491031 10.3551 0.500977 10.2119L0.5 10.2109C0.650573 8.44088 1.21053 7.01057 2.18848 5.97949C3.16504 4.94998 4.60777 4.26751 6.62402 4.08203L7.07812 4.04004V1.16406C7.07812 0.807402 7.3825 0.500123 7.75 0.5C8.11759 0.5 8.42188 0.807331 8.42188 1.16406V3.99121H19.5762V1.16406C19.5762 0.807331 19.8805 0.5 20.248 0.5Z" stroke="black"/>
</svg>
