<svg width="30" height="26" viewBox="0 0 30 26" fill="none" xmlns="http://www.w3.org/2000/svg">
<path d="M7.5 0.75H22.5C24.6314 0.75 26.2941 1.29274 27.4219 2.36035C28.5421 3.42093 29.25 5.10973 29.25 7.64746V18.3525C29.25 20.8903 28.5421 22.5791 27.4219 23.6396C26.2941 24.7073 24.6314 25.25 22.5 25.25H7.5C5.36861 25.25 3.7059 24.7073 2.57812 23.6396C1.45793 22.5791 0.75 20.8903 0.75 18.3525V7.64746C0.75 5.10973 1.45793 3.42093 2.57812 2.36035C3.7059 1.29274 5.36861 0.75 7.5 0.75ZM23.9551 7.22656C23.3149 6.3887 22.1178 6.27233 21.3213 6.92773L16.626 10.751L16.625 10.7529C16.2121 11.0908 15.62 11.2822 14.9922 11.2822C14.4427 11.2822 13.9209 11.1354 13.5225 10.8721L13.3604 10.7529L13.3584 10.751L8.66406 6.92773C7.84235 6.25133 6.6634 6.42863 6.02832 7.22559L6.02441 7.23145L6.01953 7.23633C5.44186 7.99025 5.50965 9.08485 6.17578 9.76172L6.31641 9.8916L6.32129 9.89551L11.0107 13.7139V13.7148C12.1386 14.6523 13.5902 15.0957 15 15.0957C16.4133 15.0957 17.8467 14.6501 18.9854 13.7178L18.9844 13.7168L23.6787 9.89551L23.6836 9.8916C24.4797 9.23195 24.6001 8.03289 23.957 7.22559L23.9551 7.22656Z" stroke="black" stroke-width="1.5"/>
</svg>
