<svg width="30" height="32" viewBox="0 0 30 32" fill="none" xmlns="http://www.w3.org/2000/svg">
<path d="M22.6904 15.75C23.8072 15.75 24.7462 15.8439 25.5459 16.0146L25.8799 16.0928C27.6366 16.5475 28.419 17.4011 28.8135 18.3691C29.24 19.4158 29.25 20.6705 29.25 22.0225V23.5C29.25 26.1939 28.5406 28.0918 27.2578 29.3242C25.9695 30.5617 23.9768 31.25 21.1523 31.25H8.84766C4.52837 31.25 2.62787 30.1488 1.72656 28.8232C0.774287 27.4226 0.75 25.5519 0.75 23.5V22.0225C0.75 20.6705 0.760028 19.4158 1.18652 18.3691C1.581 17.4011 2.36336 16.5475 4.12012 16.0928C4.98939 15.873 6.0334 15.75 7.30957 15.75C8.16898 15.75 8.70312 15.8508 9.11133 16.0029C9.52419 16.1569 9.85804 16.3805 10.3262 16.7197L10.3438 16.7324L10.3467 16.7344C10.3508 16.738 10.3567 16.7429 10.3643 16.75L10.3955 16.7803L11.9473 18.3486V18.3496C13.5178 19.9716 16.2556 19.9987 17.8916 18.5195L18.0469 18.3721L18.0498 18.3682L19.6045 16.7803C19.6173 16.7679 19.6267 16.7585 19.6357 16.75C19.643 16.7432 19.6483 16.738 19.6523 16.7344L19.6562 16.7324L19.6738 16.7197C20.142 16.3805 20.4758 16.1569 20.8887 16.0029C21.2969 15.8508 21.831 15.75 22.6904 15.75ZM11.1465 23.3057C10.1255 23.3057 9.256 24.1131 9.25586 25.168C9.25586 26.2229 10.1254 27.0302 11.1465 27.0303H18.8535C19.8746 27.0302 20.7441 26.2229 20.7441 25.168C20.744 24.1131 19.8745 23.3057 18.8535 23.3057H11.1465ZM10.3564 0.75H19.6436C23.2217 0.750001 24.7509 1.64513 25.4639 2.67188C26.2252 3.76881 26.25 5.24151 26.25 6.91992V11.7637C25.1979 11.5585 24.0439 11.4609 22.7393 11.4609C21.3862 11.4609 20.3552 11.6479 19.4834 11.9697C18.832 12.2102 18.291 12.5188 17.7949 12.8477L17.3115 13.1816C17.0917 13.3299 16.9044 13.508 16.7832 13.6221L16.7764 13.6289L16.7695 13.6348L15.1719 15.2158C15.1679 15.218 15.1603 15.223 15.1475 15.2275C15.1126 15.24 15.0609 15.25 15 15.25C14.9397 15.25 14.8902 15.2399 14.8564 15.2275C14.8222 15.215 14.8156 15.205 14.8232 15.2129L14.8184 15.207L14.8125 15.2012L13.248 13.6514C13.1135 13.5121 12.966 13.3806 12.8115 13.2646L12.6494 13.1504C12.0381 12.7123 11.376 12.2812 10.5186 11.9668C9.64758 11.6475 8.61335 11.4609 7.26074 11.4609C5.95609 11.4609 4.80205 11.5585 3.75 11.7637V6.91992C3.75 5.24151 3.77477 3.76881 4.53613 2.67188C5.24906 1.64513 6.77831 0.750001 10.3564 0.75Z" stroke="black" stroke-width="1.5"/>
</svg>
