<svg width="24" height="27" viewBox="0 0 24 27" fill="none" xmlns="http://www.w3.org/2000/svg">
<path fill-rule="evenodd" clip-rule="evenodd" d="M2.52171 19.2715C3.1898 19.2696 3.82998 18.9794 4.30223 18.4645C4.77448 17.9497 5.04036 17.252 5.04171 16.5241V13.7785H2.52171C1.85392 13.78 1.21382 14.0694 0.741301 14.5835C0.268779 15.0976 0.00226386 15.7946 0 16.5222C0.00171429 18.037 1.12971 19.2659 2.52 19.2678L2.52171 19.2715ZM8.83371 13.7766C8.16563 13.7786 7.52545 14.0687 7.0532 14.5836C6.58095 15.0985 6.31507 15.7962 6.31371 16.5241V23.403C6.31714 24.9178 7.44514 26.1449 8.83371 26.1486C9.5015 26.1467 10.1414 25.8567 10.6136 25.3423C11.0858 24.8278 11.3519 24.1306 11.3537 23.403V16.5222C11.3519 15.7946 11.0858 15.0974 10.6136 14.583C10.1414 14.0685 9.5015 13.7786 8.83371 13.7766Z" fill="#E01E5A"/>
<path fill-rule="evenodd" clip-rule="evenodd" d="M6.31371 2.74747C6.31543 4.26222 7.44343 5.4912 8.83371 5.49307H11.3537V2.74747C11.3524 2.01989 11.0867 1.32249 10.6148 0.807665C10.143 0.292842 9.50322 0.00246653 8.83543 0C8.16764 0.00197175 7.52772 0.291873 7.05552 0.806346C6.58332 1.32082 6.31724 2.01803 6.31543 2.7456L6.31371 2.74747ZM11.3537 9.62454C11.3519 8.89697 11.0858 8.19976 10.6136 7.68529C10.1414 7.17081 9.5015 6.88091 8.83371 6.87894H2.52C1.85221 6.88091 1.21229 7.17081 0.74009 7.68529C0.26789 8.19976 0.00180974 8.89697 0 9.62454C0.00342857 11.1412 1.13143 12.3683 2.52 12.3701H8.83543C9.50322 12.3682 10.1431 12.0783 10.6153 11.5638C11.0875 11.0493 11.3519 10.3521 11.3537 9.62454Z" fill="#36C5F0"/>
<path fill-rule="evenodd" clip-rule="evenodd" d="M15.1663 12.372C15.8341 12.37 16.474 12.0801 16.9462 11.5657C17.4184 11.0512 17.6845 10.354 17.6863 9.62641V2.7456C17.6845 2.01835 17.4186 1.32142 16.9468 0.807003C16.475 0.292583 15.8355 0.00246427 15.168 0C14.5002 0.00197175 13.8603 0.291873 13.3881 0.806346C12.9159 1.32082 12.6498 2.01803 12.648 2.7456V9.62641C12.6514 11.1393 13.776 12.3683 15.1663 12.372ZM21.4783 6.87894C20.8105 6.88091 20.1706 7.17082 19.6984 7.68529C19.2262 8.19976 18.9601 8.89697 18.9583 9.62454V12.3701H21.4783C22.1461 12.3687 22.7862 12.0792 23.2587 11.5651C23.7312 11.051 23.9977 10.354 24 9.62641C23.9982 8.89884 23.7321 8.20163 23.2599 7.68716C22.7877 7.17268 22.1478 6.88278 21.48 6.88081L21.4783 6.87894Z" fill="#2EB67D"/>
<path fill-rule="evenodd" clip-rule="evenodd" d="M12.6463 16.524C12.6497 18.0388 13.776 19.2677 15.1663 19.2696H21.48C22.1475 19.2676 22.7872 18.978 23.2593 18.4639C23.7315 17.9499 23.9978 17.2531 24 16.5259C23.9982 15.7983 23.7321 15.1011 23.2599 14.5866C22.7877 14.0721 22.1478 13.7822 21.48 13.7803H15.1663C14.4985 13.7822 13.8586 14.0721 13.3864 14.5866C12.9142 15.1011 12.6481 15.7964 12.6463 16.524ZM17.6863 23.4011C17.6845 22.6735 17.4184 21.9763 16.9462 21.4618C16.474 20.9474 15.8341 20.6575 15.1663 20.6555H12.6463V23.4011C12.6497 24.9177 13.776 26.1448 15.1663 26.1467C15.8341 26.1447 16.474 25.8548 16.9462 25.3403C17.4184 24.8259 17.6845 24.1287 17.6863 23.4011Z" fill="#ECB22E"/>
</svg>
