<svg width="24" height="13" viewBox="0 0 24 13" fill="none" xmlns="http://www.w3.org/2000/svg">
<path d="M23.6113 6.4931C23.6113 8.3033 22.9817 9.83803 21.7224 11.0973C20.4631 12.3566 18.9284 12.9862 17.1182 12.9862L4.72226 12.9862C3.42364 12.9862 2.31194 12.5238 1.38716 11.599C0.462388 10.6743 0 9.56257 0 8.26395C0 6.96533 0.462388 5.85363 1.38716 4.92885C2.31194 4.00408 3.42364 3.54169 4.72226 3.54169L15.9376 3.54169C16.764 3.54169 17.4625 3.82699 18.0331 4.3976C18.6037 4.9682 18.889 5.6667 18.889 6.4931C18.889 7.3195 18.6037 8.018 18.0331 8.5886C17.4625 9.15921 16.764 9.44451 15.9376 9.44451H4.72226V7.67366L15.9376 7.67366C16.2721 7.67366 16.5525 7.56053 16.7788 7.33425C17.0051 7.10798 17.1182 6.82759 17.1182 6.4931C17.1182 6.15861 17.0051 5.87822 16.7788 5.65195C16.5525 5.42567 16.2721 5.31254 15.9376 5.31254L4.72226 5.31254C3.89586 5.31254 3.19736 5.59784 2.62676 6.16844C2.05615 6.73905 1.77085 7.43755 1.77085 8.26395C1.77085 9.09034 2.05615 9.78884 2.62676 10.3594C3.19736 10.9301 3.89586 11.2154 4.72226 11.2154L17.1182 11.2154C18.4168 11.2154 19.5285 10.753 20.4533 9.8282C21.3781 8.90342 21.8404 7.79172 21.8404 6.4931C21.8404 5.19448 21.3781 4.08278 20.4533 3.158C19.5285 2.23323 18.4168 1.77084 17.1182 1.77084L4.72226 1.77084V-6.67572e-06L17.1182 -6.67572e-06C18.9284 -6.67572e-06 20.4631 0.629627 21.7224 1.8889C22.9817 3.14817 23.6113 4.6829 23.6113 6.4931Z" fill="#1D1B20"/>
</svg>
