<svg width="30" height="30" viewBox="0 0 30 30" fill="none" xmlns="http://www.w3.org/2000/svg">
<path d="M7.5 0.75H22.5C26.2283 0.75 29.2499 3.76341 29.25 7.47363V17.9492C29.2499 21.6594 26.2283 24.6729 22.5 24.6729H20.25C19.5909 24.6729 18.9612 24.9692 18.5352 25.4668L18.4531 25.5693L18.4512 25.5713L16.2012 28.5586L16.2002 28.5596C15.826 29.0588 15.3836 29.25 15 29.25C14.6643 29.25 14.2839 29.1035 13.9434 28.7324L13.7998 28.5596L13.7988 28.5586L11.5488 25.5713L11.5439 25.5645L11.459 25.4639C11.2545 25.2352 10.9946 25.055 10.7422 24.9287C10.4549 24.785 10.1021 24.6729 9.75 24.6729H7.5C3.77171 24.6729 0.750133 21.6594 0.75 17.9492V7.47363C0.750057 3.76341 3.77166 0.75 7.5 0.75ZM9 11.2559C7.76043 11.2559 6.75 12.2676 6.75 13.5068C6.75004 14.7412 7.74058 15.7578 9 15.7578C10.2594 15.7578 11.25 14.7412 11.25 13.5068C11.25 12.2676 10.2396 11.2559 9 11.2559ZM15 11.2559C13.7604 11.2559 12.75 12.2676 12.75 13.5068C12.75 14.7412 13.7406 15.7578 15 15.7578C16.2594 15.7578 17.25 14.7412 17.25 13.5068C17.25 12.2676 16.2396 11.2559 15 11.2559ZM21 11.2559C19.7604 11.2559 18.75 12.2676 18.75 13.5068C18.75 14.7412 19.7406 15.7578 21 15.7578C22.2594 15.7578 23.25 14.7412 23.25 13.5068C23.25 12.2676 22.2396 11.2559 21 11.2559Z" stroke="black" stroke-width="1.5"/>
</svg>
