<svg width="33" height="28" viewBox="0 0 33 28" fill="none" xmlns="http://www.w3.org/2000/svg">
<path d="M7.43555 0.75H16.8281C19.3292 0.75 20.9098 1.22072 21.8945 2.11816C22.8685 3.0059 23.4159 4.45582 23.499 6.80469L23.5479 8.19238L24.6816 7.39062L26.9805 5.76465C27.7946 5.19409 28.4528 5.01962 28.9375 4.99902C29.4257 4.97831 29.7902 5.11198 30.0146 5.23242L30.0215 5.23535L30.0273 5.23828C30.2551 5.35494 30.5756 5.57929 30.8408 5.99121C31.1037 6.39965 31.3417 7.03736 31.3418 8.03027V19.3643C31.3418 20.3576 31.1038 20.9958 30.8408 21.4043C30.642 21.7131 30.4123 21.9165 30.2139 22.0479L30.0273 22.1562L30.0205 22.1602C29.8003 22.276 29.4662 22.4033 29.0391 22.4033C28.6018 22.4033 28.0142 22.2806 27.2988 21.8418L26.9844 21.6338L26.9834 21.6328L24.6816 20.0049L23.5479 19.2021L23.499 20.5908C23.4159 22.9396 22.8685 24.3896 21.8945 25.2773C20.9098 26.1748 19.3292 26.6455 16.8281 26.6455H7.43555C4.88827 26.6454 3.2523 25.7634 2.23926 24.5479C1.20687 23.309 0.75 21.6359 0.75 19.959V7.43555C0.750041 4.82767 1.26216 3.21831 2.24023 2.24023C3.21831 1.26216 4.82767 0.750041 7.43555 0.75ZM14.4805 6.09082C12.4564 6.09082 10.7871 7.73931 10.7871 9.78418C10.7872 11.829 12.4565 13.4775 14.4805 13.4775C16.5044 13.4775 18.1737 11.8289 18.1738 9.78418C18.1738 7.73935 16.5044 6.09088 14.4805 6.09082Z" stroke="black" stroke-width="1.5"/>
</svg>
