<svg width="17" height="15" viewBox="0 0 32 18" fill="none"
    xmlns="http://www.w3.org/2000/svg">
    <path fill-rule="evenodd" clip-rule="evenodd"
        d="M8.79226 9.23927C8.79226 8.59676 9.32507 8.06396 9.96758 8.06396H14.6688V2.18739C14.6688 1.32549 13.9636 0.6203 13.1017 0.6203H9.60715C4.67083 0.6203 0.377016 4.66338 0.565066 9.58403C0.659091 11.825 1.59934 13.8465 3.08807 15.3352C4.65516 16.8866 6.80207 17.8582 9.18403 17.8582H13.1017C13.9636 17.8582 14.6688 17.153 14.6688 16.2912V10.4146H17.8029V8.06399H14.6688V10.4146H9.96758C9.32507 10.4146 8.79226 9.88177 8.79226 9.23927ZM29.3838 3.14333C27.8167 1.59192 25.6698 0.620326 23.2878 0.620326H19.3701C18.5082 0.620326 17.803 1.32551 17.803 2.18741V8.06398H22.5043C23.1468 8.06398 23.6796 8.59679 23.6796 9.2393C23.6796 9.8818 23.1468 10.4146 22.5043 10.4146H17.803V16.2912C17.803 17.1531 18.5082 17.8583 19.3701 17.8583H22.8647C27.801 17.8583 32.0948 13.8152 31.8911 8.89454C31.8128 6.6536 30.8568 4.63206 29.3838 3.14333Z"
        fill="white" />
</svg>
