<svg width="23" height="30" viewBox="0 0 33 33" fill="none"
    xmlns="http://www.w3.org/2000/svg">
    <path fill-rule="evenodd" clip-rule="evenodd"
        d="M29.1404 8.6031C29.1404 9.44932 28.6859 10.2172 27.9651 10.609L25.2383 12.082L22.919 13.32L18.1081 15.9214C17.5909 16.2035 17.0268 16.3445 16.447 16.3445C15.8672 16.3445 15.303 16.2035 14.7859 15.9214L4.9289 10.609C4.20804 10.2172 3.75359 9.44932 3.75359 8.6031C3.75359 7.75687 4.20804 6.989 4.9289 6.59723L8.01606 4.93612L10.4764 3.60409L14.7859 1.28481C15.8201 0.720657 17.0738 0.720657 18.1081 1.28481L27.9651 6.59723C28.6859 6.989 29.1404 7.75687 29.1404 8.6031ZM13.156 17.7705L3.98853 13.1946C3.28334 12.8342 2.46845 12.8812 1.79461 13.2887C1.12076 13.6961 0.728989 14.417 0.728989 15.2005V23.8665C0.728989 25.3709 1.55954 26.7186 2.90724 27.3924L12.0747 31.9683C12.3881 32.125 12.7329 32.2034 13.0776 32.2034C13.4851 32.2034 13.8925 32.0937 14.2529 31.8586C14.9268 31.4512 15.3186 30.7303 15.3186 29.9468V21.2808C15.3342 19.7921 14.5037 18.4444 13.156 17.7705ZM32.1648 23.8665V15.2006C32.1648 14.417 31.7574 13.6962 31.0992 13.2887C30.4254 12.8656 29.6105 12.8343 28.9053 13.1947L25.4577 14.9185L23.1071 16.0938L19.7379 17.7706C18.3902 18.4444 17.5596 19.7921 17.5596 21.2965V29.9468C17.5596 30.7304 17.9671 31.4512 18.6252 31.8587C19.0013 32.0937 19.4088 32.2034 19.8162 32.2034C20.161 32.2034 20.5057 32.1251 20.8191 31.9684L29.9866 27.3768C31.3343 26.703 32.1648 25.3553 32.1648 23.8665Z"
        fill="white" />
</svg>
