<svg version="1.1" id="Layer_1"
    xmlns="http://www.w3.org/2000/svg"
    xmlns:xlink="http://www.w3.org/1999/xlink" x="0px" y="0px"
    width="20px" height="20px" viewBox="0 0 20 20"
    enable-background="new 0 0 20 20" xml:space="preserve">
                                                        <g>
                                                            <path fill="#036AB2" d="M10.361,11.643H4.608c-1.096,0-2.128,0.428-2.906,1.205C0.927,13.622,0.5,14.652,0.5,15.752v1.645
  c0,0.455,0.369,0.819,0.822,0.819c0.453,0,0.821-0.364,0.821-0.819v-1.645c0-0.648,0.263-1.284,0.721-1.743
  c0.466-0.465,1.086-0.722,1.744-0.722h5.752c0.649,0,1.285,0.263,1.744,0.722s0.725,1.095,0.725,1.743v1.645
  c0,0.455,0.367,0.819,0.818,0.819c0.455,0,0.822-0.366,0.822-0.819v-1.645c0-1.097-0.429-2.128-1.203-2.904
  C12.49,12.072,11.458,11.643,10.361,11.643z" />
                                                            <path fill="#036AB2" d="M7.485,10c2.266,0,4.109-1.843,4.109-4.108S9.75,1.784,7.485,1.784c-2.265,0-4.11,1.842-4.11,4.107
  S5.219,10,7.485,10z M7.485,3.427c1.359,0,2.466,1.105,2.466,2.465S8.845,8.358,7.485,8.358c-1.36,0-2.465-1.107-2.465-2.466
  S6.125,3.427,7.485,3.427z" />
                                                            <path fill="#036AB2" d="M19.259,10.34l-1.161-1.162l1.161-1.161c0.32-0.321,0.32-0.843,0-1.164c-0.321-0.32-0.841-0.32-1.161,0
  l-1.162,1.164l-1.162-1.163c-0.321-0.32-0.842-0.32-1.162,0c-0.32,0.321-0.32,0.843,0,1.163l1.162,1.162l-1.162,1.163
  c-0.322,0.32-0.322,0.84,0,1.161c0.32,0.322,0.841,0.322,1.162,0.001l1.162-1.162l1.162,1.161c0.32,0.322,0.842,0.321,1.162,0
  S19.581,10.66,19.259,10.34z" />
                                                        </g>
                                                    </svg>
