<svg width="30" height="30" viewBox="0 0 41 47" fill="none"
    xmlns="http://www.w3.org/2000/svg">
    <path fill-rule="evenodd" clip-rule="evenodd"
        d="M31.4374 1.95831V5.46831C37.5124 6.03081 40.4599 9.65331 40.9099 15.0308C40.9774 15.6608 40.4374 16.2233 39.7849 16.2233H1.7149C1.0849 16.2233 0.5449 15.6833 0.5899 15.0308C1.0399 9.65331 3.9874 6.03081 10.0624 5.46831V1.95831C10.0624 1.03581 10.8274 0.270813 11.7499 0.270813C12.6724 0.270813 13.4374 1.03581 13.4374 1.95831V5.33331H28.0624V1.95831C28.0624 1.03581 28.8274 0.270813 29.7499 0.270813C30.6724 0.270813 31.4374 1.03581 31.4374 1.95831ZM2.75 19.5983H38.75C39.9875 19.5983 41 20.6108 41 21.8483V35.7083C41 42.4583 37.625 46.9583 29.75 46.9583H11.75C3.875 46.9583 0.5 42.4583 0.5 35.7083V21.8483C0.5 20.6108 1.5125 19.5983 2.75 19.5983ZM14.36 38.5258C14.3975 38.4933 14.435 38.4608 14.4725 38.4308C14.8775 38.0033 15.125 37.4183 15.125 36.8333C15.125 36.2483 14.8775 35.6633 14.4725 35.2358L14.135 34.9658C14 34.8758 13.865 34.8083 13.73 34.7633C13.595 34.6958 13.46 34.6508 13.325 34.6283C12.875 34.5383 12.425 34.5833 12.02 34.7633C11.7275 34.8758 11.5025 35.0333 11.2775 35.2358C10.8725 35.6633 10.625 36.2483 10.625 36.8333C10.625 37.4183 10.8725 38.0033 11.2775 38.4308C11.5025 38.6333 11.7275 38.7908 12.02 38.9033C12.29 39.0158 12.5825 39.0833 12.875 39.0833C13.0148 39.0833 13.1368 39.0656 13.2726 39.0459C13.2898 39.0434 13.3073 39.0408 13.325 39.0383C13.46 39.0158 13.595 38.9708 13.73 38.9033C13.865 38.8583 14 38.7908 14.135 38.7008C14.21 38.6558 14.285 38.5908 14.36 38.5258ZM12.875 31.2083C13.46 31.2083 14.045 30.9608 14.4725 30.5558C14.8775 30.1283 15.125 29.5433 15.125 28.9583C15.125 28.3733 14.8775 27.7883 14.4725 27.3608C14.27 27.1583 14.0225 27.0008 13.73 26.8883C12.8975 26.5283 11.9075 26.7308 11.2775 27.3608C10.8725 27.7883 10.625 28.3733 10.625 28.9583C10.625 29.5433 10.8725 30.1283 11.2775 30.5558C11.705 30.9608 12.29 31.2083 12.875 31.2083ZM20.75 39.0833C21.335 39.0833 21.92 38.8358 22.3475 38.4308C22.7525 38.0033 23 37.4183 23 36.8333C23 36.2483 22.7525 35.6633 22.3475 35.2358C21.515 34.4033 19.985 34.4033 19.1525 35.2358C18.7475 35.6633 18.5 36.2483 18.5 36.8333C18.5 37.4183 18.7475 38.0033 19.1525 38.4308C19.58 38.8358 20.165 39.0833 20.75 39.0833ZM22.01 30.8258L22.3475 30.5558C22.7525 30.1283 23 29.5433 23 28.9583C23 28.3733 22.7525 27.7883 22.3475 27.3608C21.7175 26.7308 20.7275 26.5283 19.895 26.8883C19.6025 27.0008 19.355 27.1583 19.1525 27.3608C18.7475 27.7883 18.5 28.3733 18.5 28.9583C18.5 29.5433 18.7475 30.1283 19.1525 30.5558C19.58 30.9608 20.165 31.2083 20.75 31.2083C20.8898 31.2083 21.0118 31.1906 21.1476 31.1709C21.1648 31.1684 21.1823 31.1658 21.2 31.1633C21.335 31.1408 21.47 31.0958 21.605 31.0283C21.74 30.9833 21.875 30.9158 22.01 30.8258ZM28.625 39.0833C29.21 39.0833 29.795 38.8358 30.2225 38.4308C30.6275 38.0033 30.875 37.4183 30.875 36.8333C30.875 36.2483 30.6275 35.6633 30.2225 35.2358C29.39 34.4033 27.86 34.4033 27.0275 35.2358C26.6225 35.6633 26.375 36.2483 26.375 36.8333C26.375 37.4183 26.6225 38.0033 27.0275 38.4308C27.455 38.8358 28.04 39.0833 28.625 39.0833ZM29.885 30.8258L30.2225 30.5558C30.6275 30.1283 30.875 29.5433 30.875 28.9583C30.875 28.3733 30.6275 27.7883 30.2225 27.3608L29.885 27.0908C29.75 27.0008 29.615 26.9333 29.48 26.8883C29.345 26.8208 29.21 26.7758 29.075 26.7533C28.625 26.6633 28.175 26.7083 27.77 26.8883C27.4775 27.0008 27.2525 27.1583 27.0275 27.3608C26.6225 27.7883 26.375 28.3733 26.375 28.9583C26.375 29.5433 26.6225 30.1283 27.0275 30.5558C27.455 30.9608 28.04 31.2083 28.625 31.2083C28.76 31.2083 28.9175 31.1858 29.075 31.1633L29.075 31.1633C29.21 31.1408 29.345 31.0958 29.48 31.0283C29.615 30.9833 29.75 30.9158 29.885 30.8258Z"
        fill="white" />
</svg>
