<svg version="1.1" id="Layer_1"
    xmlns="http://www.w3.org/2000/svg"
    xmlns:xlink="http://www.w3.org/1999/xlink" x="0px" y="0px"
    width="20px" height="20px" viewBox="0 0 20 20"
    enable-background="new 0 0 20 20" xml:space="preserve">
                                                        <g>
                                                            <path fill="#036AB2"
                                                                d="M17.92,19.9c-0.547,0-0.99-0.443-0.99-0.99v-1.98c0-0.781-0.316-1.547-0.869-2.1
                                                                c-0.554-0.553-1.317-0.87-2.101-0.87H6.04c-0.793,0-1.539,0.31-2.101,0.87c-0.552,0.553-0.869,1.316-0.869,2.1v1.98
                                                                c0,0.547-0.443,0.99-0.99,0.99s-0.99-0.443-0.99-0.99v-1.98c0-1.322,0.515-2.563,1.449-3.498c0.937-0.936,2.179-1.451,3.501-1.451
                                                                h7.92c1.321,0,2.565,0.518,3.5,1.451c0.935,0.935,1.45,2.178,1.45,3.498v1.98C18.91,19.457,18.467,19.9,17.92,19.9z" />
                                                            <path fill="#036AB2"
                                                                d="M10,10c-2.729,0-4.95-2.222-4.95-4.95C5.05,2.32,7.271,0.1,10,0.1c2.729,0,4.95,2.221,4.95,4.95
                                                                C14.95,7.778,12.729,10,10,10z M10,2.08c-1.637,0-2.97,1.332-2.97,2.97c0,1.638,1.333,2.97,2.97,2.97
                                                                c1.639,0,2.971-1.332,2.971-2.97C12.971,3.412,11.639,2.08,10,2.08z" />
                                                        </g>
                                                    </svg>
