<svg version="1.1" id="Layer_1"
    xmlns="http://www.w3.org/2000/svg"
    xmlns:xlink="http://www.w3.org/1999/xlink" x="0px" y="0px"
    width="20px" height="20px" viewBox="0 0 20 20"
    enable-background="new 0 0 20 20" xml:space="preserve">
    <path fill="#036AB2" d="M18.997,4.277c-0.31-0.172-0.687-0.162-0.988,0.025l-7.795,4.872C9.93,9.352,9.756,9.664,9.756,10
            s0.174,0.648,0.459,0.827l7.794,4.871c0.158,0.099,0.335,0.146,0.517,0.146c0.162,0,0.326-0.04,0.473-0.118
            c0.311-0.175,0.502-0.498,0.502-0.854V5.129C19.499,4.774,19.307,4.448,18.997,4.277z M17.551,13.113l-4.982-3.114l4.982-3.113
            V13.113z" />
    <g>
        <polygon fill="#036AB2"
            points="3.663,6.341 5.249,5.425 4.26,3.456 1.462,5.071 1.462,14.932 4.322,16.581 5.438,14.684
                3.663,13.659 	" />
        <polygon fill="#036AB2"
            points="7.583,15.922 6.468,17.818 10,19.857 14.084,17.501 14.084,14.961 10,17.316 	" />
        <polygon fill="#036AB2"
            points="10,0.142 6.409,2.215 7.398,4.185 10,2.682 14.084,5.04 14.084,2.5 	" />
    </g>
</svg>
