<svg width="30" height="30" viewBox="0 0 30 30" fill="none" xmlns="http://www.w3.org/2000/svg">
    <path
        d="M11.549 25.5717L11.5491 25.5717L11.5436 25.5646C11.3294 25.2872 11.0305 25.0727 10.7418 24.9283C10.4545 24.7846 10.1021 24.6727 9.75 24.6727H7.5C3.77163 24.6727 0.75 21.6592 0.75 17.949V16.4482V7.47374C0.75 3.76347 3.77163 0.75 7.5 0.75H22.5C26.2284 0.75 29.25 3.76347 29.25 7.47374V17.949C29.25 21.6592 26.2284 24.6727 22.5 24.6727H20.25C19.5469 24.6727 18.8774 25.0104 18.4528 25.5693L18.451 25.5717L16.201 28.5582L16.1999 28.5597C15.8257 29.0589 15.3836 29.25 15 29.25C14.6164 29.25 14.1743 29.0589 13.8001 28.5596L13.799 28.5582L11.549 25.5717ZM6.75 13.5068C6.75 14.7411 7.74055 15.7575 9 15.7575C10.2595 15.7575 11.25 14.7411 11.25 13.5068C11.25 12.2675 10.2396 11.256 9 11.256C7.76043 11.256 6.75 12.2675 6.75 13.5068ZM12.75 13.5068C12.75 14.7411 13.7405 15.7575 15 15.7575C16.2595 15.7575 17.25 14.7411 17.25 13.5068C17.25 12.2675 16.2396 11.256 15 11.256C13.7604 11.256 12.75 12.2675 12.75 13.5068ZM18.75 13.5068C18.75 14.7411 19.7405 15.7575 21 15.7575C22.2595 15.7575 23.25 14.7411 23.25 13.5068C23.25 12.2675 22.2396 11.256 21 11.256C19.7604 11.256 18.75 12.2675 18.75 13.5068Z"
        stroke="black" stroke-width="1.5" />
</svg>
