<svg width="30" height="30" viewBox="0 0 46 50" fill="none"
    xmlns="http://www.w3.org/2000/svg">
    <path fill-rule="evenodd" clip-rule="evenodd"
        d="M41.283 20.3V11.05C41.283 5.875 41.283 0 30.0746 0H15.9247C4.71632 0 4.71632 5.875 4.71632 11.05V20.3C4.80129 20.2581 4.90406 20.2338 4.99481 20.2123C5.01239 20.2081 5.02952 20.2041 5.04598 20.2C6.82106 19.725 8.82436 19.5 11.208 19.5C15.1132 19.5 16.9644 20.625 18.7902 22C19.0438 22.175 19.2973 22.4 19.5256 22.65L21.9092 25.125C22.1628 25.4 22.5686 25.55 22.9997 25.55C23.4307 25.55 23.8365 25.4 24.0647 25.15L26.4991 22.625L26.4991 22.625C26.702 22.425 26.9302 22.2 27.1838 22.025C29.0603 20.625 30.8861 19.5 34.7913 19.5C37.1749 19.5 39.1783 19.725 40.9533 20.2C40.9698 20.2041 40.9869 20.2081 41.0045 20.2123C41.0952 20.2338 41.198 20.2581 41.283 20.3ZM34.7916 23.25C36.8203 23.25 38.5193 23.45 39.9647 23.825C46 25.425 46 30.15 46 34.3V36.625C46 45.5 41.4355 50 32.4333 50H13.5667C0 50 0 42.9 0 36.625V34.3C0 30.15 0 25.425 6.03528 23.825C7.4807 23.45 9.17971 23.25 11.2084 23.25C14.0231 23.25 15.0628 23.925 16.5083 25C16.5843 25.05 16.6604 25.125 16.7365 25.2L19.1455 27.7C21.1742 29.85 24.8258 29.825 26.8544 27.725L29.2635 25.2C29.3396 25.125 29.4156 25.05 29.4917 25C30.9371 23.925 31.9768 23.25 34.7916 23.25ZM17.0915 41H28.9085C29.8721 41 30.6582 40.225 30.6582 39.25C30.6582 38.275 29.8721 37.5 28.9085 37.5H17.0915C16.1279 37.5 15.3418 38.275 15.3418 39.25C15.3418 40.225 16.1279 41 17.0915 41Z"
        fill="white" />
</svg>
