<svg version="1.1" id="Layer_1"
    xmlns="http://www.w3.org/2000/svg"
    xmlns:xlink="http://www.w3.org/1999/xlink" x="0px" y="0px"
    width="20px" height="20px" viewBox="0 0 20 20"
    enable-background="new 0 0 20 20" xml:space="preserve">
                                                        <path fill="#036AB2" d="M15.942,11.486h-3.131l0.328-2.973h2.803c0.412,0,0.744-0.333,0.744-0.744c0-0.41-0.332-0.743-0.744-0.743
 h-2.637l0.403-3.633c0.045-0.408-0.25-0.776-0.655-0.821c-0.4-0.046-0.775,0.249-0.82,0.657L11.81,7.027H8.847L9.25,3.394
 c0.045-0.408-0.249-0.776-0.657-0.821C8.186,2.527,7.818,2.822,7.773,3.23L7.353,7.028H4.055c-0.41,0-0.743,0.333-0.743,0.743
 c0,0.411,0.333,0.745,0.743,0.745h3.133l-0.33,2.971H4.055c-0.41,0-0.743,0.332-0.743,0.744c0,0.408,0.333,0.742,0.743,0.742h2.638
 l-0.404,3.633c-0.045,0.408,0.249,0.775,0.657,0.82c0.027,0.004,0.056,0.006,0.083,0.006c0.373,0,0.695-0.281,0.737-0.662
 l0.423-3.797h2.963l-0.403,3.633c-0.046,0.408,0.248,0.775,0.655,0.82c0.029,0.004,0.057,0.006,0.084,0.006
 c0.373,0,0.695-0.281,0.736-0.662l0.424-3.797h3.297c0.41,0,0.744-0.334,0.744-0.742C16.687,11.818,16.354,11.486,15.942,11.486z
 M8.354,11.486l0.329-2.973h2.963l-0.328,2.973H8.354z" />
                                                    </svg>
