<svg viewBox="0 0 1020 1059" fill="none" xmlns="http://www.w3.org/2000/svg">
    <path
        d="M789.101 326.674C766.182 293.239 737.6 263.759 704.165 239.582C633.071 187.991 545.44 164.533 457.988 173.431C370.625 182.419 289.555 223.314 230.414 288.206C206.776 314.181 187.273 343.302 172.263 374.49C146.917 409.453 105.124 431.293 63.1501 420.687C15.784 408.644 -13.5165 360.019 6.25685 315.349C45.8934 225.561 110.067 147.995 192.126 92.0007C250.817 51.9148 316.518 24.5018 385.096 10.5706C567.999 38.7026 719.715 161.117 789.101 326.674ZM698.683 822.176C626.51 872.328 538.519 894.169 451.247 883.563C364.064 872.957 283.802 830.534 225.921 764.474C204.979 740.566 187.452 714.231 173.701 686.099C148.535 650.058 105.932 627.139 63.24 638.014C15.8739 650.058 -13.4266 698.682 6.34673 743.352C46.0731 833.141 110.157 910.706 192.216 966.611C250.907 1006.61 316.608 1034.11 385.096 1048.04C568.808 1019.82 721.153 896.326 790 729.601C765.643 765.552 734.814 796.92 698.683 822.176Z"
        fill="url(#paint0_linear_6_22)" />
    <path
        d="M1019.91 529.351C1019.91 658.417 972.813 782.989 887.428 879.698C802.043 976.408 684.302 1038.6 556.315 1054.69C498.793 1061.88 441.001 1059.55 385.186 1048.22C568.898 1020 721.242 896.506 790.09 729.781C799.796 715.49 808.515 700.48 816.065 684.841C823.704 669.023 823.794 652.575 818.401 638.014C810.582 616.803 791.078 599.456 766.272 593.524C724.388 583.548 683.404 610.961 658.327 646.014C645.025 664.618 628.577 680.976 609.523 694.189C568.898 722.5 519.285 734.814 470.121 728.792C420.958 722.77 375.749 698.862 343.123 661.652C310.497 624.443 292.701 576.447 293.15 527.014C293.599 477.491 312.294 429.945 345.639 393.274C378.984 356.694 424.643 333.685 473.896 328.562C523.15 323.529 572.493 336.741 612.579 365.861C631.364 379.523 647.542 396.151 660.484 414.935C684.842 450.437 725.287 478.659 767.35 469.492C791.617 464.189 811.031 447.921 819.66 427.608C825.951 412.778 826.401 395.701 818.851 379.163C810.402 360.828 800.426 343.302 789.011 326.674C719.625 161.118 567.909 38.6129 385.006 10.5707C441 -0.754019 498.703 -3.09087 556.225 4.09943C684.212 20.0979 802.043 82.294 887.338 179.093C972.723 275.713 1019.91 400.285 1019.91 529.351Z"
        fill="url(#paint1_linear_6_22)" />
    <defs>
        <linearGradient id="paint0_linear_6_22" x1="1808.89" y1="873.548" x2="203.029" y2="484.447"
            gradientUnits="userSpaceOnUse">
            <stop offset="0.5382" stop-color="#3EA9D6" />
            <stop offset="0.7199" stop-color="#2E9EDC" />
            <stop offset="1" stop-color="#0E89E7" />
        </linearGradient>
        <linearGradient id="paint1_linear_6_22" x1="292.35" y1="-83.6445" x2="777.077" y2="872.62"
            gradientUnits="userSpaceOnUse">
            <stop offset="0.1015" stop-color="#9AFDFE" />
            <stop offset="0.5398" stop-color="#41ACD8" />
            <stop offset="0.8774" stop-color="#0071BC" />
        </linearGradient>
    </defs>
</svg>
