<svg width="17" height="30" viewBox="0 0 33 33" fill="none"
    xmlns="http://www.w3.org/2000/svg">
    <path fill-rule="evenodd" clip-rule="evenodd"
        d="M13.9708 5.34411C13.9708 8.26942 11.5993 10.6409 8.67401 10.6409C5.7487 10.6409 3.37726 8.26942 3.37726 5.34411C3.37726 2.4188 5.7487 0.0473633 8.67401 0.0473633C11.5993 0.0473633 13.9708 2.4188 13.9708 5.34411ZM27.3538 12.3958L32.2588 23.8669C33.0893 25.7944 32.9013 28.004 31.7103 29.7591C30.5506 31.5143 28.5918 32.5642 26.4919 32.5642H6.49587C4.31763 32.5642 2.32743 31.4516 1.18345 29.6024C0.0394823 27.7533 -0.0545429 25.481 0.91705 23.5221L3.62811 18.1157C4.42732 16.5329 5.63398 15.5613 7.04435 15.4203C8.45473 15.2793 9.83377 15.9531 10.9464 17.3478L11.2912 17.7866C12.0904 18.8052 13.0776 19.3223 14.0649 19.2283C15.0365 19.15 15.9297 18.4761 16.5566 17.3478L19.534 12.0041C20.6467 9.99819 22.104 8.94825 23.6084 9.0266C25.1285 9.10495 26.4605 10.2959 27.3538 12.3958Z"
        fill="white" />
</svg>
