<svg width="30" height="30" viewBox="0 0 50 50" fill="none"
    xmlns="http://www.w3.org/2000/svg">
    <path fill-rule="evenodd" clip-rule="evenodd"
        d="M17.9119 7.05705C17.9119 3.15315 21.1617 0 25.1279 0C29.1197 0 32.3438 3.15315 32.3438 7.05705C32.3438 10.9609 29.1197 14.1141 25.1279 14.1141C21.1361 14.1141 17.9119 10.9609 17.9119 7.05705ZM44.5499 25.2002C44.6523 26.1261 45.4455 26.8268 46.3923 26.8268H46.597C47.6206 26.7267 48.3626 25.8258 48.2603 24.8248C47.5182 18.2933 43.9358 12.3874 38.3831 8.6086C37.5387 8.03303 36.3872 8.23323 35.7987 9.05906C35.2101 9.88488 35.4148 11.011 36.2593 11.5866C40.9164 14.7397 43.9358 19.6947 44.5499 25.2002ZM3.68489 26.9519H3.86401C4.81079 26.9519 5.62962 26.2512 5.73197 25.3003C6.29492 19.8198 9.28877 14.8649 13.8947 11.6617C14.7135 11.0861 14.9182 9.95997 14.3297 9.13415C13.7412 8.33335 12.5641 8.13315 11.7453 8.70872C6.24374 12.5125 2.71253 18.4184 2.02164 24.9499C1.91929 25.9509 2.66135 26.8518 3.68489 26.9519ZM35.2102 47.7728C32.0628 49.2492 28.6851 50 25.1539 50C21.4691 50 17.9635 49.1992 14.6882 47.5726C13.767 47.1472 13.4088 46.046 13.8694 45.1451C14.3044 44.2442 15.4303 43.8939 16.3514 44.3193C17.9635 45.1201 19.6779 45.6707 21.418 45.996C23.7721 46.4464 26.1774 46.4715 28.5316 46.0711C30.2716 45.7708 31.986 45.2453 33.5725 44.4945C34.5193 44.0691 35.6452 44.4194 36.0546 45.3453C36.5152 46.2462 36.1569 47.3474 35.2102 47.7728ZM7.21595 29.6796C3.24974 29.6796 0 32.8328 0 36.7367C0 40.6406 3.22415 43.7937 7.21595 43.7937C11.2078 43.7937 14.4319 40.6406 14.4319 36.7367C14.4319 32.8328 11.1822 29.6796 7.21595 29.6796ZM35.5676 36.7367C35.5676 32.8328 38.8174 29.6796 42.7836 29.6796C46.7754 29.6796 49.9995 32.8328 49.9995 36.7367C49.9995 40.6406 46.7754 43.7937 42.7836 43.7937C38.7918 43.7937 35.5676 40.6406 35.5676 36.7367Z"
        fill="white" />
</svg>
