<svg width="20" height="20" viewBox="0 0 50 50" fill="none" xmlns="http://www.w3.org/2000/svg">
    <path
        d="M38.9389 0H11.036C4.95495 0 0 4.95 0 11.025V27.275V27.775C0 33.875 4.95495 38.8 11.036 38.8H20.6456C22.022 38.8 23.1481 39.925 23.1481 41.3V43.725C23.1481 45.1 22.022 46.225 20.6456 46.225H14.5896C13.5636 46.225 12.7127 47.075 12.7127 48.1C12.7127 49.125 13.5385 50 14.5896 50H35.4855C36.5115 50 37.3624 49.15 37.3624 48.125C37.3624 47.1 36.5115 46.25 35.4855 46.25H29.4294C28.0531 46.25 26.9269 45.125 26.9269 43.75V41.325C26.9269 39.95 28.0531 38.825 29.4294 38.825H38.964C45.0701 38.825 50 33.875 50 27.8V27.3V11.05C49.975 4.95 45.02 0 38.9389 0Z"
        fill="white" />
</svg>
