<svg width="17" height="28" viewBox="0 0 33 32" fill="none"
    xmlns="http://www.w3.org/2000/svg">
    <path fill-rule="evenodd" clip-rule="evenodd"
        d="M6.05243 0.468018H9.02989C12.4461 0.468018 14.2483 2.27017 14.2326 5.68641V8.66387C14.2326 12.0801 12.4305 13.8823 9.01422 13.8823H6.03676C2.62051 13.8823 0.818365 12.0801 0.818365 8.66387V5.68641C0.818365 2.27017 2.62051 0.468018 6.05243 0.468018ZM23.9642 0.468044H26.9417C30.3579 0.468044 32.1601 2.27019 32.1601 5.68644V8.6639C32.1601 12.0801 30.3579 13.8823 26.9417 13.8823H23.9642C20.548 13.8823 18.7458 12.0801 18.7458 8.6639V5.68644C18.7458 2.27019 20.548 0.468044 23.9642 0.468044ZM26.9417 18.3797H23.9642C20.548 18.3797 18.7458 20.1819 18.7458 23.5981V26.5756C18.7458 29.9918 20.548 31.794 23.9642 31.794H26.9417C30.3579 31.794 32.1601 29.9918 32.1601 26.5756V23.5981C32.1601 20.1819 30.3579 18.3797 26.9417 18.3797ZM6.05241 18.3797H9.02987C12.4461 18.3797 14.2483 20.1819 14.2326 23.6138V26.5913C14.2326 30.0075 12.4304 31.8097 9.0142 31.8097H6.03674C2.62049 31.8097 0.818344 30.0075 0.818344 26.5756V23.5981C0.818344 20.1819 2.62049 18.3797 6.05241 18.3797Z"
        fill="white" />
</svg>
