<svg width="30" height="30" viewBox="0 0 43 50" fill="none"
    xmlns="http://www.w3.org/2000/svg">
    <path fill-rule="evenodd" clip-rule="evenodd"
        d="M12.5 0H30C40 0 42.5 2.5 42.5 12.5V26.25C42.5 27.625 41.375 28.75 40 28.75H7.125C4.4 28.75 1.9 29.775 0 31.45V12.5C0 2.5 2.5 0 12.5 0ZM11.25 21.875H23.75C24.775 21.875 25.625 21.025 25.625 20C25.625 18.975 24.775 18.125 23.75 18.125H11.25C10.225 18.125 9.375 18.975 9.375 20C9.375 21.025 10.225 21.875 11.25 21.875ZM11.25 13.125H31.25C32.275 13.125 33.125 12.275 33.125 11.25C33.125 10.225 32.275 9.375 31.25 9.375H11.25C10.225 9.375 9.375 10.225 9.375 11.25C9.375 12.275 10.225 13.125 11.25 13.125ZM42.5 41.25V35C42.5 33.625 41.375 32.5 40 32.5H7.125C3.2 32.5 0 35.7 0 39.625V41.25C0 46.075 3.925 50 8.75 50H33.75C38.575 50 42.5 46.075 42.5 41.25Z"
        fill="white" />
</svg>
