<svg version="1.1" id="Layer_1"
    xmlns="http://www.w3.org/2000/svg"
    xmlns:xlink="http://www.w3.org/1999/xlink" x="0px" y="0px"
    width="20px" height="20px" viewBox="0 0 20 20"
    enable-background="new 0 0 20 20" xml:space="preserve">
                                                        <g>
                                                            <path fill="#036AB2" d="M18.846,5.021H6.099c-0.5,0-0.904-0.404-0.904-0.904s0.404-0.904,0.904-0.904h12.747
  c0.5,0,0.904,0.404,0.904,0.904S19.346,5.021,18.846,5.021z" />
                                                            <path fill="#036AB2" d="M18.846,10.905H6.099c-0.5,0-0.904-0.405-0.904-0.905s0.404-0.904,0.904-0.904h12.747
  c0.5,0,0.904,0.404,0.904,0.904S19.346,10.905,18.846,10.905z" />
                                                            <path fill="#036AB2" d="M18.846,16.788H6.099c-0.5,0-0.904-0.404-0.904-0.906c0-0.499,0.404-0.903,0.904-0.903h12.747
  c0.5,0,0.904,0.404,0.904,0.903C19.75,16.382,19.346,16.788,18.846,16.788z" />
                                                            <path fill="#036AB2" d="M1.206,5.069c-0.524,0-0.956-0.426-0.956-0.952c0-0.525,0.421-0.951,0.946-0.951h0.01
  c0.526,0,0.951,0.426,0.951,0.951C2.158,4.644,1.732,5.069,1.206,5.069z" />
                                                            <path fill="#036AB2" d="M1.206,10.951c-0.524,0-0.956-0.426-0.956-0.951c0-0.525,0.421-0.952,0.946-0.952h0.01
  c0.526,0,0.951,0.427,0.951,0.952C2.157,10.525,1.732,10.951,1.206,10.951z" />
                                                            <path fill="#036AB2" d="M1.206,16.834c-0.525,0-0.956-0.427-0.956-0.952c0-0.526,0.421-0.952,0.946-0.952h0.01
  c0.526,0,0.951,0.426,0.951,0.952C2.157,16.407,1.732,16.834,1.206,16.834z" />
                                                        </g>
                                                    </svg>
