<svg version="1.1" id="Layer_1"
    xmlns="http://www.w3.org/2000/svg"
    xmlns:xlink="http://www.w3.org/1999/xlink" x="0px" y="0px"
    width="20px" height="20px" viewBox="0 0 20 20"
    enable-background="new 0 0 20 20" xml:space="preserve">
                                                        <g>
                                                            <path fill="#036AB2" d="M13.824,12.836c-0.764-0.822-1.844-1.297-2.965-1.304l-0.733-0.005c-1.956-0.014-3.911-0.025-5.866,0.011
  c-1.94,0.036-3.511,1.278-3.91,3.091c-0.136,0.616-0.139,1.256-0.142,1.875c-0.001,0.219-0.001,0.438-0.008,0.653
  c-0.01,0.319,0.077,0.584,0.25,0.763c0.108,0.111,0.305,0.244,0.679,0.244c0.001,0,0.003,0,0.004,0
  c0.325-0.012,0.871-0.163,0.871-1.046L2.002,16.65C2,16.318,1.997,15.984,2.013,15.652c0.069-1.377,0.983-2.28,2.33-2.303
  c2.148-0.029,4.297-0.035,6.446,0.002c1.365,0.024,2.279,0.953,2.329,2.366c0.008,0.267,0.007,0.531,0.006,0.798
  c0,0.227-0.001,0.452,0.004,0.678c0.009,0.6,0.334,0.964,0.876,0.974h0.018c0.563,0,0.903-0.375,0.91-1.004
  c0.002-0.21,0.002-0.419,0.002-0.628l-0.002-0.229C15.052,14.555,14.396,13.451,13.824,12.836z M14.02,17.865L14.02,17.865v0.002
  V17.865z" />
                                                            <path fill="#036AB2" d="M7.549,10.108H7.57c1.101,0,2.137-0.432,2.918-1.216c0.782-0.784,1.21-1.824,1.209-2.928
  c0-2.278-1.854-4.131-4.161-4.131C6.429,1.84,5.389,2.28,4.61,3.074C3.833,3.866,3.411,4.91,3.424,6.014
  C3.452,8.296,5.264,10.095,7.549,10.108z M7.572,8.29c-0.635,0-1.227-0.247-1.668-0.695c-0.436-0.441-0.67-1.026-0.662-1.646
  c0.02-1.29,1.034-2.3,2.31-2.3c0.636,0,1.229,0.247,1.67,0.695c0.435,0.441,0.67,1.025,0.661,1.646
  C9.864,7.279,8.849,8.29,7.572,8.29z M7.57,9.806L7.57,9.806v0.002V9.806z" />
                                                            <path fill="#036AB2" d="M13.641,2.027c-0.654-0.19-1.068,0.004-1.254,0.515c-0.089,0.255-0.084,0.488,0.016,0.692
  c0.109,0.225,0.326,0.393,0.643,0.5c1.094,0.375,1.645,1.101,1.684,2.222c0.037,1.049-0.506,1.77-1.709,2.267
  c-0.805,0.331-0.737,0.892-0.625,1.199c0.138,0.372,0.422,0.576,0.801,0.576c0.136,0,0.283-0.024,0.453-0.075
  c1.721-0.507,2.912-2.146,2.9-3.986C16.535,4.154,15.313,2.51,13.641,2.027z" />
                                                            <path fill="#036AB2" d="M19.8,16.309c-0.007-0.117-0.01-0.235-0.014-0.354c-0.011-0.287-0.019-0.585-0.063-0.88
  c-0.252-1.614-1.176-2.73-2.746-3.319c-0.688-0.261-1.146-0.076-1.346,0.454c-0.098,0.256-0.102,0.488-0.008,0.69
  c0.143,0.313,0.477,0.47,0.749,0.569c1.052,0.392,1.573,1.14,1.592,2.288c0.005,0.245,0.005,0.49,0.005,0.735
  c-0.001,0.224-0.001,0.446,0.004,0.671c0.012,0.904,0.627,1.002,0.891,1.002l0.033-0.001c0.328-0.009,0.879-0.155,0.883-1.038
  v-0.462l0.041,0.006L19.8,16.309z M18.863,17.861L18.863,17.861v0.005V17.861z" />
                                                        </g>
                                                    </svg>
