<svg width="30" height="30" viewBox="0 0 50 50" fill="none"
    xmlns="http://www.w3.org/2000/svg">
    <path fill-rule="evenodd" clip-rule="evenodd"
        d="M46.0392 21.3C44.8561 22.45 43.3643 23.475 41.6668 24.1C39.2225 29.9482 33.6427 34.2099 26.9291 34.9013V40.6251H32.7162C35.5454 40.6251 37.8602 42.8751 37.8602 45.6251V46.2501H40.4322C41.4868 46.2501 42.3612 47.1001 42.3612 48.1251C42.3612 49.1501 41.4868 50.0001 40.4322 50.0001H9.56793C8.5134 50.0001 7.63892 49.1501 7.63892 48.1251C7.63892 47.1001 8.5134 46.2501 9.56793 46.2501H12.14V45.6251C12.14 42.8751 14.4548 40.6251 17.284 40.6251H23.0711V34.9013C16.3574 34.2099 10.7776 29.9482 8.33336 24.1C6.63582 23.475 5.14405 22.45 3.96092 21.3C1.56893 18.725 0 15.65 0 12.05C0 8.45 2.90639 5.625 6.6101 5.625H8.05044C9.72225 2.3 13.2202 0 17.284 0H32.7162C36.7799 0 40.2779 2.3 41.9497 5.625H43.39C47.0938 5.625 50.0001 8.45 50.0001 12.05C50.0001 15.65 48.4312 18.725 46.0392 21.3ZM23.1723 34.9115C23.7816 34.9776 24.3908 35.0001 25.0001 35.0001C25.6093 35.0001 26.2186 34.9776 26.8278 34.9115C26.2271 34.97 25.6173 35 25.0001 35C24.3828 35 23.7731 34.97 23.1723 34.9115ZM30.71 18.025L32.3046 16.125C33.3077 14.975 32.8705 13.7 31.3787 13.325L28.9353 12.725C28.5495 12.625 28.0865 12.275 27.8807 11.95L26.5176 9.9C25.6688 8.625 24.3314 8.625 23.4826 9.9L22.1194 11.95C21.9136 12.275 21.4507 12.625 21.0649 12.725L18.6215 13.325C17.1297 13.7 16.6924 14.975 17.6955 16.125L19.2902 18.025C19.5474 18.3 19.7274 18.85 19.7017 19.225L19.5474 21.675C19.4445 23.175 20.5505 23.95 21.9908 23.4L24.3314 22.5C24.6914 22.375 25.3087 22.375 25.6688 22.5L28.0093 23.4C29.4497 23.95 30.5556 23.175 30.4528 21.675L30.2984 19.225C30.2727 18.85 30.4528 18.3 30.71 18.025Z"
        fill="white" />
</svg>
