<svg version="1.1" id="Layer_1"
    xmlns="http://www.w3.org/2000/svg"
    xmlns:xlink="http://www.w3.org/1999/xlink" x="0px" y="0px"
    width="20px" height="20px" viewBox="0 0 20 20"
    enable-background="new 0 0 20 20" xml:space="preserve">
                                                        <path fill="#036AB2" d="M2.06,19.001c-0.277,0-0.548-0.108-0.749-0.31c-0.284-0.283-0.382-0.703-0.257-1.084l1.543-4.627
 c-0.471-1.075-0.718-2.25-0.715-3.423c0-1.589,0.442-3.144,1.279-4.497s2.031-2.443,3.453-3.154c1.172-0.594,2.49-0.907,3.808-0.907
 h0.462c2.159,0.117,4.138,1.002,5.628,2.491c1.488,1.489,2.37,3.466,2.487,5.569L19,9.559c0.003,1.324-0.311,2.649-0.907,3.832
 c-0.708,1.418-1.8,2.611-3.151,3.448c-2.364,1.459-5.422,1.659-7.919,0.563l-4.626,1.543C2.284,18.98,2.172,19.001,2.06,19.001z
 M10.442,3.118c-1.007,0-1.993,0.235-2.874,0.682C6.492,4.337,5.593,5.156,4.964,6.174C4.334,7.192,4,8.364,4,9.561
 c-0.001,0.996,0.234,1.989,0.682,2.875c0.128,0.252,0.149,0.547,0.059,0.813L3.733,16.27l3.02-1.008
 c0.268-0.092,0.561-0.066,0.813,0.061c1.976,0.998,4.424,0.854,6.26-0.284c1.02-0.63,1.839-1.527,2.374-2.597
 c0.448-0.892,0.685-1.885,0.683-2.877V9.118c-0.086-1.522-0.751-3.01-1.869-4.129c-1.121-1.12-2.607-1.785-4.188-1.872L10.442,3.118
 z" />
                                                    </svg>
