<svg version="1.1" id="Layer_1"
    xmlns="http://www.w3.org/2000/svg"
    xmlns:xlink="http://www.w3.org/1999/xlink" x="0px" y="0px"
    width="20px" height="20px" viewBox="0 0 20 20"
    enable-background="new 0 0 20 20" xml:space="preserve">
                                                        <path fill="#036AB2" d="M17.538,1.273c-0.283-0.131-0.618-0.086-0.854,0.114L9.34,7.598H2.801C2.358,7.599,2,7.957,2,8.399v3.203
 c0,0.438,0.358,0.797,0.801,0.797H3.6V18c0,0.443,0.358,0.801,0.801,0.801h4c0.229,0,0.449-0.1,0.599-0.271
 c0.152-0.173,0.225-0.4,0.193-0.63l-0.688-5.5h0.833l7.343,6.211c0.148,0.125,0.332,0.189,0.518,0.189
 c0.115,0,0.23-0.025,0.339-0.072C17.818,18.595,18,18.313,18,18V1.999C18,1.688,17.818,1.404,17.538,1.273z M7.494,17.199H5.199
 v-4.801h1.696L7.494,17.199z M16.398,16.273l-6.25-5.283c-0.145-0.124-0.328-0.189-0.518-0.189H3.6V9.199h6.032
 c0.188,0,0.373-0.067,0.517-0.188L16.4,3.723v12.55H16.398z" />
                                                    </svg>
