<svg version="1.1" id="Layer_1"
    xmlns="http://www.w3.org/2000/svg"
    xmlns:xlink="http://www.w3.org/1999/xlink" x="0px" y="0px"
    width="20px" height="20px" viewBox="0 0 20 20"
    enable-background="new 0 0 20 20" xml:space="preserve">
                                                        <path fill="#036AB2" stroke="#036AB2" stroke-width="0.5"
                                                            stroke-miterlimit="10"
                                                            d="M18.938,7.849
 c-0.168-0.539-0.602-0.82-1.246-0.82H15.52c-0.904,0-1.809,0-2.717,0.004c-0.098,0-0.111-0.013-0.145-0.112
 c-0.385-1.193-0.771-2.384-1.159-3.577l-0.354-1.081C10.96,1.688,10.545,1.36,10,1.358c-0.551,0-0.961,0.324-1.151,0.915
 L7.368,6.847c-0.019,0.06-0.041,0.12-0.066,0.183H5.509c-1.07,0-2.196,0-3.265,0.001l0.059,0.133L2.244,7.031
 c-0.114,0-0.236,0.003-0.352,0.035C1.419,7.192,1.12,7.517,1.025,8C0.932,8.485,1.1,8.902,1.513,9.203
 c1.342,0.982,2.686,1.963,4.035,2.938c0.094,0.068,0.099,0.088,0.063,0.193c-0.467,1.409-0.924,2.818-1.383,4.227l-0.159,0.492
 c-0.17,0.528-0.016,1.049,0.408,1.362c0.202,0.147,0.438,0.229,0.682,0.229c0.255,0,0.51-0.088,0.739-0.25
 c0.262-0.188,0.521-0.379,0.781-0.568l3.317-2.416l1.217,0.887c0.949,0.691,1.898,1.385,2.852,2.067
 c0.117,0.085,0.355,0.229,0.627,0.261c0.434,0.046,0.836-0.123,1.078-0.457c0.227-0.311,0.281-0.709,0.157-1.1
 c-0.51-1.584-1.028-3.162-1.547-4.741c-0.034-0.101-0.03-0.121,0.052-0.175c0.91-0.658,1.819-1.323,2.728-1.985l1.237-0.902
 C18.919,8.89,19.111,8.385,18.938,7.849z M17.834,8.466l-1.622,1.183c-0.92,0.67-1.835,1.339-2.758,2.006
 c-0.159,0.116-0.245,0.243-0.166,0.491c0.433,1.299,0.854,2.599,1.276,3.895l0.424,1.291c0.059,0.177,0.012,0.245-0.055,0.289
 c-0.092,0.064-0.168,0.052-0.291-0.038c-0.617-0.451-1.233-0.901-1.854-1.351l-1.344-0.975c-0.394-0.285-0.788-0.574-1.175-0.867
 c-0.122-0.092-0.315-0.173-0.543-0.006C8.624,15.195,7.52,16,6.415,16.805l-0.939,0.685c-0.037,0.024-0.074,0.054-0.109,0.079
 c-0.131,0.104-0.211,0.123-0.308,0.058c-0.083-0.06-0.112-0.126-0.041-0.331C5.21,16.714,5.4,16.134,5.59,15.551l0.391-1.201
 c0.237-0.731,0.475-1.464,0.72-2.194c0.075-0.22,0.03-0.362-0.155-0.496c-1.156-0.836-2.309-1.679-3.46-2.52L2.151,8.456
 C2.13,8.439,2.105,8.424,2.084,8.407C1.966,8.312,1.97,8.234,1.993,8.162c0.037-0.111,0.1-0.155,0.225-0.155V7.876l0.001,0.132
 C2.68,8.009,3.139,8.01,3.6,8.01l2.803-0.002c0.433,0,0.867,0.001,1.31,0.007c0.224,0,0.342-0.089,0.412-0.307
 c0.432-1.355,0.874-2.709,1.312-4.063l0.337-1.044C9.834,2.395,9.88,2.34,10.005,2.34c0.121,0.002,0.162,0.064,0.223,0.254
 c0.21,0.656,0.424,1.309,0.637,1.965l0.453,1.396c0.189,0.587,0.384,1.175,0.568,1.762c0.063,0.209,0.186,0.298,0.405,0.298
 c1.089-0.005,2.179-0.005,3.267-0.005l2.129-0.001c0.22,0,0.283,0.028,0.319,0.147C18.042,8.274,18.007,8.343,17.834,8.466z" />
                                                    </svg>
