<svg width="35" height="34" viewBox="0 0 60 60" fill="none"
    xmlns="http://www.w3.org/2000/svg">
    <path
        d="M48.85 24.4C48.85 24.8142 49.1858 25.15 49.6 25.15H53.8C56.5382 25.15 58.75 22.9382 58.75 20.2C58.75 17.4618 56.5382 15.25 53.8 15.25C51.0618 15.25 48.85 17.4618 48.85 20.2V24.4ZM11.15 35.6C11.15 35.1858 10.8142 34.85 10.4 34.85H6.2C3.46179 34.85 1.25 37.0618 1.25 39.8C1.25 42.5382 3.46179 44.75 6.2 44.75C8.93821 44.75 11.15 42.5382 11.15 39.8V35.6ZM35.6 48.85C35.1858 48.85 34.85 49.1858 34.85 49.6V53.8C34.85 56.5382 37.0618 58.75 39.8 58.75C42.5382 58.75 44.75 56.5382 44.75 53.8C44.75 51.0618 42.5382 48.85 39.8 48.85H35.6ZM24.4 11.15C24.8142 11.15 25.15 10.8142 25.15 10.4V6.2C25.15 3.46179 22.9382 1.25 20.2 1.25C17.4618 1.25 15.25 3.46179 15.25 6.2C15.25 8.93821 17.4618 11.15 20.2 11.15H24.4ZM32.05 20.2C32.05 22.9382 34.2618 25.15 37 25.15C39.7382 25.15 41.95 22.9382 41.95 20.2V6.2C41.95 3.46179 39.7382 1.25 37 1.25C34.2618 1.25 32.05 3.46179 32.05 6.2V20.2ZM27.95 39.8C27.95 37.0618 25.7382 34.85 23 34.85C20.2618 34.85 18.05 37.0618 18.05 39.8V53.8C18.05 56.5382 20.2618 58.75 23 58.75C25.7382 58.75 27.95 56.5382 27.95 53.8V39.8ZM39.8 32.05C37.0618 32.05 34.85 34.2618 34.85 37C34.85 39.7382 37.0618 41.95 39.8 41.95H53.8C56.5382 41.95 58.75 39.7382 58.75 37C58.75 34.2618 56.5382 32.05 53.8 32.05H39.8ZM25.15 23C25.15 20.2618 22.9382 18.05 20.2 18.05H6.2C3.46179 18.05 1.25 20.2618 1.25 23C1.25 25.7382 3.46179 27.95 6.2 27.95H20.2C22.9382 27.95 25.15 25.7382 25.15 23Z"
        fill="#1E1E1E" stroke="#1E1E1E" stroke-width="1.5" stroke-linecap="round"
        stroke-linejoin="round" />
</svg>
