<svg width="17" height="30" viewBox="0 0 34 34" fill="none"
    xmlns="http://www.w3.org/2000/svg">
    <mask id="path-1-outside-1_95_1150" maskUnits="userSpaceOnUse" x="0.120361" y="0.0473633"
        width="33" height="33" fill="black">
        <rect fill="white" x="0.120361" y="0.0473633" width="33" height="33" />
        <path fill-rule="evenodd" clip-rule="evenodd"
            d="M24.3444 25.9303H18.2274V24.2714H24.3444V18.1544H26.0033V24.2714H32.1204V25.9303H26.0033V32.0474H24.3444V25.9303ZM14.2876 24.2714V25.9303H10.3478V24.2714H14.2876ZM6.40799 24.2714V25.9303H3.60866C2.23441 25.9303 1.12036 24.8163 1.12036 23.442V20.9537H2.77922V23.442C2.77922 23.9001 3.15057 24.2714 3.60866 24.2714H6.40799ZM2.77922 15.9771H1.12036V11.0005H2.77922V15.9771ZM2.77922 6.02395H1.12036V3.53566C1.12036 2.16141 2.23441 1.04736 3.60866 1.04736H6.09695V2.70623H3.60866C3.15057 2.70623 2.77922 3.07758 2.77922 3.53566V6.02395ZM11.0735 2.70623V1.04736H16.0501V2.70623H11.0735ZM21.0267 2.70623V1.04736H23.515C24.8893 1.04736 26.0033 2.16141 26.0033 3.53566V6.33499H24.3444V3.53566C24.3444 3.07758 23.9731 2.70623 23.515 2.70623H21.0267ZM24.3444 10.2748H26.0033V14.2146H24.3444V10.2748Z" />
    </mask>
    <path fill-rule="evenodd" clip-rule="evenodd"
        d="M24.3444 25.9303H18.2274V24.2714H24.3444V18.1544H26.0033V24.2714H32.1204V25.9303H26.0033V32.0474H24.3444V25.9303ZM14.2876 24.2714V25.9303H10.3478V24.2714H14.2876ZM6.40799 24.2714V25.9303H3.60866C2.23441 25.9303 1.12036 24.8163 1.12036 23.442V20.9537H2.77922V23.442C2.77922 23.9001 3.15057 24.2714 3.60866 24.2714H6.40799ZM2.77922 15.9771H1.12036V11.0005H2.77922V15.9771ZM2.77922 6.02395H1.12036V3.53566C1.12036 2.16141 2.23441 1.04736 3.60866 1.04736H6.09695V2.70623H3.60866C3.15057 2.70623 2.77922 3.07758 2.77922 3.53566V6.02395ZM11.0735 2.70623V1.04736H16.0501V2.70623H11.0735ZM21.0267 2.70623V1.04736H23.515C24.8893 1.04736 26.0033 2.16141 26.0033 3.53566V6.33499H24.3444V3.53566C24.3444 3.07758 23.9731 2.70623 23.515 2.70623H21.0267ZM24.3444 10.2748H26.0033V14.2146H24.3444V10.2748Z"
        fill="white" />
    <path
        d="M18.2274 25.9303H17.2274C17.2274 26.4826 17.6751 26.9303 18.2274 26.9303V25.9303ZM24.3444 25.9303H25.3444C25.3444 25.378 24.8967 24.9303 24.3444 24.9303V25.9303ZM18.2274 24.2714V23.2714C17.6751 23.2714 17.2274 23.7192 17.2274 24.2714H18.2274ZM24.3444 24.2714V25.2714C24.8967 25.2714 25.3444 24.8237 25.3444 24.2714H24.3444ZM24.3444 18.1544V17.1544C23.7922 17.1544 23.3444 17.6021 23.3444 18.1544H24.3444ZM26.0033 18.1544H27.0033C27.0033 17.6021 26.5556 17.1544 26.0033 17.1544V18.1544ZM26.0033 24.2714H25.0033C25.0033 24.8237 25.451 25.2714 26.0033 25.2714V24.2714ZM32.1204 24.2714H33.1204C33.1204 23.7192 32.6726 23.2714 32.1204 23.2714V24.2714ZM32.1204 25.9303V26.9303C32.6726 26.9303 33.1204 26.4826 33.1204 25.9303H32.1204ZM26.0033 25.9303V24.9303C25.451 24.9303 25.0033 25.378 25.0033 25.9303H26.0033ZM26.0033 32.0474V33.0474C26.5556 33.0474 27.0033 32.5996 27.0033 32.0474H26.0033ZM24.3444 32.0474H23.3444C23.3444 32.5996 23.7922 33.0474 24.3444 33.0474V32.0474ZM14.2876 25.9303V26.9303C14.8399 26.9303 15.2876 26.4826 15.2876 25.9303H14.2876ZM14.2876 24.2714H15.2876C15.2876 23.7192 14.8399 23.2714 14.2876 23.2714V24.2714ZM10.3478 25.9303H9.34779C9.34779 26.4826 9.7955 26.9303 10.3478 26.9303V25.9303ZM10.3478 24.2714V23.2714C9.7955 23.2714 9.34779 23.7192 9.34779 24.2714H10.3478ZM6.40799 25.9303V26.9303C6.96027 26.9303 7.40799 26.4826 7.40799 25.9303H6.40799ZM6.40799 24.2714H7.40799C7.40799 23.7192 6.96027 23.2714 6.40799 23.2714V24.2714ZM1.12036 20.9537V19.9537C0.568077 19.9537 0.120361 20.4014 0.120361 20.9537H1.12036ZM2.77922 20.9537H3.77922C3.77922 20.4014 3.33151 19.9537 2.77922 19.9537V20.9537ZM1.12036 15.9771H0.120361C0.120361 16.5294 0.568077 16.9771 1.12036 16.9771L1.12036 15.9771ZM2.77922 15.9771V16.9771C3.33151 16.9771 3.77922 16.5294 3.77922 15.9771H2.77922ZM1.12036 11.0005V10.0005C0.568077 10.0005 0.120361 10.4483 0.120361 11.0005H1.12036ZM2.77922 11.0005H3.77922C3.77922 10.4483 3.33151 10.0005 2.77922 10.0005V11.0005ZM1.12036 6.02395H0.120361C0.120361 6.57624 0.568077 7.02395 1.12036 7.02395L1.12036 6.02395ZM2.77922 6.02395V7.02395C3.33151 7.02395 3.77922 6.57624 3.77922 6.02395H2.77922ZM6.09695 1.04736H7.09695C7.09695 0.495079 6.64923 0.0473633 6.09695 0.0473633V1.04736ZM6.09695 2.70623V3.70623C6.64923 3.70623 7.09695 3.25851 7.09695 2.70623H6.09695ZM11.0735 1.04736V0.0473633C10.5213 0.0473633 10.0735 0.495079 10.0735 1.04736L11.0735 1.04736ZM11.0735 2.70623H10.0735C10.0735 3.25851 10.5213 3.70623 11.0735 3.70623V2.70623ZM16.0501 1.04736H17.0501C17.0501 0.495079 16.6024 0.0473633 16.0501 0.0473633V1.04736ZM16.0501 2.70623V3.70623C16.6024 3.70623 17.0501 3.25851 17.0501 2.70623H16.0501ZM21.0267 1.04736V0.0473633C20.4744 0.0473633 20.0267 0.495079 20.0267 1.04736L21.0267 1.04736ZM21.0267 2.70623H20.0267C20.0267 3.25851 20.4744 3.70623 21.0267 3.70623V2.70623ZM26.0033 6.33499V7.33499C26.5556 7.33499 27.0033 6.88727 27.0033 6.33499H26.0033ZM24.3444 6.33499H23.3444C23.3444 6.88727 23.7922 7.33499 24.3444 7.33499V6.33499ZM26.0033 10.2748H27.0033C27.0033 9.7225 26.5556 9.27479 26.0033 9.27479V10.2748ZM24.3444 10.2748V9.27479C23.7922 9.27479 23.3444 9.7225 23.3444 10.2748H24.3444ZM26.0033 14.2146V15.2146C26.5556 15.2146 27.0033 14.7669 27.0033 14.2146H26.0033ZM24.3444 14.2146H23.3444C23.3444 14.7669 23.7922 15.2146 24.3444 15.2146V14.2146ZM18.2274 26.9303H24.3444V24.9303H18.2274V26.9303ZM17.2274 24.2714V25.9303H19.2274V24.2714H17.2274ZM24.3444 23.2714H18.2274V25.2714H24.3444V23.2714ZM23.3444 18.1544V24.2714H25.3444V18.1544H23.3444ZM26.0033 17.1544H24.3444V19.1544H26.0033V17.1544ZM27.0033 24.2714V18.1544H25.0033V24.2714H27.0033ZM26.0033 25.2714H32.1204V23.2714H26.0033V25.2714ZM31.1204 24.2714V25.9303H33.1204V24.2714H31.1204ZM32.1204 24.9303H26.0033V26.9303H32.1204V24.9303ZM25.0033 25.9303V32.0474H27.0033V25.9303H25.0033ZM26.0033 31.0474H24.3444V33.0474H26.0033V31.0474ZM25.3444 32.0474V25.9303H23.3444V32.0474H25.3444ZM15.2876 25.9303V24.2714H13.2876V25.9303H15.2876ZM10.3478 26.9303H14.2876V24.9303H10.3478V26.9303ZM9.34779 24.2714V25.9303H11.3478V24.2714H9.34779ZM14.2876 23.2714H10.3478V25.2714H14.2876V23.2714ZM7.40799 25.9303V24.2714H5.40799V25.9303H7.40799ZM3.60866 26.9303H6.40799V24.9303H3.60866V26.9303ZM0.120361 23.442C0.120361 25.3685 1.68213 26.9303 3.60866 26.9303V24.9303C2.78669 24.9303 2.12036 24.264 2.12036 23.442H0.120361ZM0.120361 20.9537V23.442H2.12036V20.9537H0.120361ZM2.77922 19.9537H1.12036V21.9537H2.77922V19.9537ZM3.77922 23.442V20.9537H1.77922V23.442H3.77922ZM3.60866 23.2714C3.70286 23.2714 3.77922 23.3478 3.77922 23.442H1.77922C1.77922 24.4524 2.59829 25.2714 3.60866 25.2714V23.2714ZM6.40799 23.2714H3.60866V25.2714H6.40799V23.2714ZM1.12036 16.9771H2.77922V14.9771H1.12036V16.9771ZM0.120361 11.0005V15.9771H2.12036V11.0005H0.120361ZM2.77922 10.0005H1.12036V12.0005H2.77922V10.0005ZM3.77922 15.9771V11.0005H1.77922V15.9771H3.77922ZM1.12036 7.02395H2.77922V5.02395H1.12036V7.02395ZM0.120361 3.53566V6.02395H2.12036V3.53566H0.120361ZM3.60866 0.0473633C1.68212 0.0473633 0.120361 1.60913 0.120361 3.53566H2.12036C2.12036 2.7137 2.78669 2.04736 3.60866 2.04736V0.0473633ZM6.09695 0.0473633H3.60866V2.04736H6.09695V0.0473633ZM7.09695 2.70623V1.04736H5.09695V2.70623H7.09695ZM3.60866 3.70623H6.09695V1.70623H3.60866V3.70623ZM3.77922 3.53566C3.77922 3.62986 3.70286 3.70623 3.60866 3.70623V1.70623C2.59829 1.70623 1.77922 2.52529 1.77922 3.53566H3.77922ZM3.77922 6.02395V3.53566H1.77922V6.02395H3.77922ZM10.0735 1.04736V2.70623H12.0735V1.04736H10.0735ZM16.0501 0.0473633H11.0735V2.04736H16.0501V0.0473633ZM17.0501 2.70623V1.04736H15.0501V2.70623H17.0501ZM11.0735 3.70623H16.0501V1.70623H11.0735V3.70623ZM20.0267 1.04736V2.70623H22.0267V1.04736H20.0267ZM23.515 0.0473633H21.0267V2.04736H23.515V0.0473633ZM27.0033 3.53566C27.0033 1.60913 25.4415 0.0473633 23.515 0.0473633V2.04736C24.337 2.04736 25.0033 2.7137 25.0033 3.53566H27.0033ZM27.0033 6.33499V3.53566H25.0033V6.33499H27.0033ZM24.3444 7.33499H26.0033V5.33499H24.3444V7.33499ZM23.3444 3.53566V6.33499H25.3444V3.53566H23.3444ZM23.515 3.70623C23.4208 3.70623 23.3444 3.62986 23.3444 3.53566H25.3444C25.3444 2.52529 24.5254 1.70623 23.515 1.70623V3.70623ZM21.0267 3.70623H23.515V1.70623H21.0267V3.70623ZM26.0033 9.27479H24.3444V11.2748H26.0033V9.27479ZM27.0033 14.2146V10.2748H25.0033V14.2146H27.0033ZM24.3444 15.2146H26.0033V13.2146H24.3444V15.2146ZM23.3444 10.2748V14.2146H25.3444V10.2748H23.3444Z"
        fill="white" mask="url(#path-1-outside-1_95_1150)" />
</svg>
