<svg width="30" height="30" viewBox="0 0 50 50" fill="none" xmlns="http://www.w3.org/2000/svg">
    <path
        d="M40.372 10C38.8092 10 37.3745 9.125 36.6571 7.775L34.8125 4.15C33.634 1.875 30.5596 0 27.9463 0H22.0793C19.4404 0 16.366 1.875 15.1875 4.15L13.3429 7.775C12.6255 9.125 11.1908 10 9.62797 10C4.06841 10 -0.338236 14.575 0.0204449 19.975L1.35269 40.625C1.66013 45.775 4.50395 50 11.5751 50H38.4249C45.496 50 48.3142 45.775 48.6473 40.625L49.9796 19.975C50.3382 14.575 45.9316 10 40.372 10ZM21.157 13.125H28.843C29.8934 13.125 30.7645 13.975 30.7645 15C30.7645 16.025 29.8934 16.875 28.843 16.875H21.157C20.1066 16.875 19.2355 16.025 19.2355 15C19.2355 13.975 20.1066 13.125 21.157 13.125ZM25 40.3C20.2347 40.3 16.3404 36.525 16.3404 31.85C16.3404 27.175 20.209 23.4 25 23.4C29.791 23.4 33.6596 27.175 33.6596 31.85C33.6596 36.525 29.7653 40.3 25 40.3Z"
        fill="white" />
</svg>
