<svg version="1.1" id="Layer_1"
    xmlns="http://www.w3.org/2000/svg"
    xmlns:xlink="http://www.w3.org/1999/xlink" x="0px" y="0px"
    width="20px" height="20px" viewBox="0 0 20 20"
    enable-background="new 0 0 20 20" xml:space="preserve">
                                                        <g>
                                                            <path fill="#036AB2"
                                                                d="M3.894,7.361c0-0.152-0.004-0.254,0.001-0.354c0.032-0.545,0.406-0.935,0.946-0.984
  c0.075-0.008,0.151-0.008,0.228-0.008c3.29,0,6.576,0,9.867,0c0.607,0,1.021,0.275,1.133,0.773c0.039,0.17,0.027,0.351,0.039,0.507
  c0.201-0.127,0.393-0.298,0.617-0.38c0.446-0.159,0.932,0.032,1.156,0.45c0.518,0.96,1.02,1.93,1.514,2.904
  c0.076,0.152,0.098,0.344,0.1,0.517c0.008,1.567,0.007,3.136,0.004,4.704c-0.003,1.539-1.146,2.722-2.688,2.725
  c-4.545,0.018-9.087,0.016-13.63,0.002c-1.512-0.004-2.662-1.173-2.673-2.687c-0.01-1.587-0.007-3.171,0.005-4.757
  c0.001-0.211,0.06-0.438,0.155-0.627C1.097,9.282,1.55,8.43,1.996,7.574C2.438,6.723,3.202,6.618,3.894,7.361z M17.463,12.292
  c-1.166,0-2.293-0.002-3.418,0.008c-0.074,0.001-0.171,0.091-0.221,0.162c-0.416,0.608-0.827,1.222-1.229,1.836
  c-0.238,0.367-0.563,0.542-0.998,0.539c-1.068-0.004-2.135-0.004-3.203,0c-0.424,0.001-0.749-0.16-0.982-0.521
  C7.01,13.7,6.592,13.091,6.191,12.473c-0.088-0.139-0.183-0.188-0.347-0.186c-1.017,0.009-2.033,0.004-3.05,0.005
  c-0.081,0-0.163,0.007-0.253,0.011c0,1.115-0.006,2.198,0.003,3.283c0.002,0.311,0.224,0.532,0.536,0.583
  c0.1,0.019,0.203,0.019,0.303,0.019c4.407,0.002,8.813,0.002,13.217,0.002c0.063,0,0.121,0,0.18-0.002
  c0.443-0.023,0.683-0.273,0.684-0.717c0.002-0.99,0.001-1.98,0.001-2.974C17.463,12.438,17.463,12.382,17.463,12.292z
  M14.063,8.063c-2.727,0-5.417,0-8.139,0c0,0.215,0,0.417,0,0.618c-0.003,0.61-0.418,1.056-0.993,1.068
  C4.366,9.761,3.917,9.318,3.892,8.721c-0.004-0.094,0-0.188,0-0.281c-0.018,0-0.036,0-0.053,0c-0.308,0.595-0.617,1.19-0.942,1.817
  c0.139,0,0.231,0,0.323,0c1.11,0,2.219,0.003,3.329-0.001c0.406-0.001,0.714,0.16,0.938,0.502c0.409,0.622,0.829,1.237,1.235,1.864
  c0.089,0.138,0.187,0.187,0.35,0.185c0.618-0.012,1.238-0.013,1.855,0c0.167,0.004,0.259-0.056,0.347-0.192
  c0.404-0.622,0.824-1.24,1.238-1.86c0.225-0.336,0.532-0.499,0.94-0.497c1.11,0.006,2.222,0.002,3.33,0.002
  c0.093,0,0.184,0,0.317,0c-0.328-0.635-0.643-1.235-0.953-1.834c-0.053,0.095-0.051,0.176-0.053,0.256
  c-0.002,0.611-0.414,1.056-0.988,1.069c-0.578,0.014-1.026-0.437-1.043-1.052C14.059,8.493,14.063,8.293,14.063,8.063z" />
                                                            <path fill="#036AB2" d="M12.376,3.82c-1.593,0-3.15,0-4.755,0c0,0.251,0.014,0.494-0.002,0.733C7.585,5.058,7.229,5.43,6.743,5.494
  c-0.48,0.063-1.015-0.188-1.064-0.656c-0.082-0.792-0.081-1.604,0-2.394C5.722,2.013,6.143,1.781,6.591,1.78
  c2.272-0.008,4.543-0.008,6.816,0c0.554,0,0.983,0.426,0.999,0.982c0.019,0.585,0.017,1.17,0,1.753
  c-0.018,0.573-0.487,1.007-1.047,0.989s-0.977-0.45-0.983-1.024C12.374,4.27,12.376,4.06,12.376,3.82z" />
                                                        </g>
                                                    </svg>
