<svg xmlns="http://www.w3.org/2000/svg" width="17" height="30" viewBox="0 0 33 32" fill="none">
    <path
        d="M24.3847 0H8.73027C4.40964 0 0.903046 3.49269 0.903046 7.79981V17.1659V18.7321C0.903046 23.0392 4.40964 26.5319 8.73027 26.5319H11.0784C11.5011 26.5319 12.0647 26.8138 12.3308 27.1584L14.679 30.2752C15.7121 31.6535 17.4028 31.6535 18.436 30.2752L20.7842 27.1584C21.0816 26.7668 21.5513 26.5319 22.0365 26.5319H24.3847C28.7053 26.5319 32.2119 23.0392 32.2119 18.7321V7.79981C32.2119 3.49269 28.7053 0 24.3847 0ZM10.2957 15.6623C9.41906 15.6623 8.73027 14.9575 8.73027 14.096C8.73027 13.2346 9.43472 12.5298 10.2957 12.5298C11.1567 12.5298 11.8612 13.2346 11.8612 14.096C11.8612 14.9575 11.1724 15.6623 10.2957 15.6623ZM16.5575 15.6623C15.6808 15.6623 14.992 14.9575 14.992 14.096C14.992 13.2346 15.6965 12.5298 16.5575 12.5298C17.4185 12.5298 18.1229 13.2346 18.1229 14.096C18.1229 14.9575 17.4341 15.6623 16.5575 15.6623ZM22.8193 15.6623C21.9426 15.6623 21.2538 14.9575 21.2538 14.096C21.2538 13.2346 21.9583 12.5298 22.8193 12.5298C23.6803 12.5298 24.3847 13.2346 24.3847 14.096C24.3847 14.9575 23.6959 15.6623 22.8193 15.6623Z"
        fill="white" />
</svg>
