<svg width="30" height="30" viewBox="0 0 50 51" fill="none"
    xmlns="http://www.w3.org/2000/svg">
    <path fill-rule="evenodd" clip-rule="evenodd"
        d="M11.1286 14.2245C11.3039 14.1999 11.4791 14.1999 11.6544 14.2245C15.5349 14.1013 18.6144 10.9704 18.6144 7.1246C18.6144 3.18018 15.3847 0 11.379 0C7.39824 0 4.16859 3.18018 4.16859 7.1246C4.16859 10.9704 7.24802 14.1013 11.1286 14.2245ZM38.3675 14.2245C38.5427 14.1999 38.718 14.1999 38.8932 14.2245C42.7738 14.1013 45.8532 10.9704 45.8783 7.1246C45.8783 3.18018 42.6236 0 38.6429 0C34.6371 0 31.4075 3.20483 31.4075 7.1246C31.4075 10.9704 34.4869 14.1013 38.3675 14.2245ZM36.6901 33.3797C40.3203 33.8481 44.251 33.1578 47.055 31.3089C50.9857 28.7203 50.9857 24.5048 47.03 21.9409C44.2009 20.0919 40.2703 19.4017 36.5649 19.8947C37.6165 21.9409 38.1672 24.2829 38.1672 26.7481C38.1422 29.1148 37.6415 31.3582 36.6901 33.3797ZM12.881 33.4535C11.9297 31.4073 11.4039 29.1393 11.4039 26.748C11.4039 24.2581 11.9547 21.9161 12.9812 19.8453C9.42605 19.4508 5.64562 20.1658 2.96677 21.9408C-0.988922 24.5293 -0.988922 28.7449 2.96677 31.3334C5.67065 33.0837 9.35095 33.8233 12.881 33.4535ZM25.3495 34.1931C25.1492 34.1685 24.9239 34.1685 24.6985 34.1931C20.0919 34.0452 16.4116 30.3227 16.4116 25.7373C16.4367 21.0533 20.2672 17.2568 25.049 17.2568C29.8059 17.2568 33.6614 21.0533 33.6614 25.7373C33.6364 30.3227 29.9811 34.0452 25.3495 34.1931ZM17.2128 48.3438C13.4323 45.8785 13.4323 41.7862 17.2128 39.2963C21.544 36.4612 28.6041 36.4612 32.8853 39.2963C36.6657 41.7615 36.6657 45.8538 32.8853 48.3438C28.5791 51.1788 21.519 51.1788 17.2128 48.3438Z"
        fill="white" />
</svg>
