<svg width="14" height="14" viewBox="0 0 14 14" fill="none" xmlns="http://www.w3.org/2000/svg">
    <path
        d="M2.21992 0.505887C1.79933 0.0852977 1.11742 0.0852973 0.696834 0.505886C0.276244 0.926476 0.276244 1.60839 0.696833 2.02897L5.26576 6.5979L0.315442 11.5482C-0.105147 11.9688 -0.105147 12.6507 0.315442 13.0713C0.736031 13.4919 1.41794 13.4919 1.83853 13.0713L6.78885 8.12099L11.9296 13.2617C12.3502 13.6823 13.0321 13.6823 13.4527 13.2617C13.8733 12.8412 13.8733 12.1593 13.4527 11.7387L8.31193 6.5979L13.0713 1.83853C13.4919 1.41794 13.4919 0.736031 13.0713 0.315442C12.6507 -0.105147 11.9688 -0.105148 11.5482 0.315443L6.78885 5.07481L2.21992 0.505887Z"
        fill="black" />
</svg>
