<svg xmlns="http://www.w3.org/2000/svg" width="17" height="25" viewBox="0 0 33 28"
    fill="none">
    <path
        d="M30.8775 4.83807C30.2357 4.49367 28.8894 4.13362 27.0578 5.41728L24.7566 7.04534C24.5844 2.17681 22.4711 0.266968 17.3364 0.266968H7.94375C2.58993 0.266968 0.507889 2.34901 0.507889 7.70283V20.2264C0.507889 23.8269 2.46469 27.6622 7.94375 27.6622H17.3364C22.4711 27.6622 24.5844 25.7524 24.7566 20.8839L27.0578 22.5119C28.0284 23.2007 28.8737 23.4199 29.5469 23.4199C30.1261 23.4199 30.5801 23.2477 30.8775 23.0911C31.5193 22.7624 32.5995 21.8701 32.5995 19.6315V8.2977C32.5995 6.05911 31.5193 5.16681 30.8775 4.83807ZM14.9882 12.994C13.3758 12.994 12.0452 11.6791 12.0452 10.051C12.0452 8.42293 13.3758 7.10796 14.9882 7.10796C16.6007 7.10796 17.9313 8.42293 17.9313 10.051C17.9313 11.6791 16.6007 12.994 14.9882 12.994Z"
        fill="white" />
</svg>
